<svg width="92" height="116" viewBox="0 0 92 116" fill="none" xmlns="http://www.w3.org/2000/svg">
<g filter="url(#filter0_d_355_552)">
<path d="M6.20801 4.28583H51.6847L71.1874 24.0629V83.1317H6.20801V4.28583Z" fill="#C7F2FF"/>
<path d="M67.9416 14.2986H61.5146V20.7805H67.9416V14.2986Z" fill="#0101B1"/>
<path d="M61.5147 7.58887H54.9854V14.2986H61.5147V7.58887Z" fill="#0101B1"/>
<path d="M74.4381 20.777H67.9395V27.3486H74.4381V20.777Z" fill="#0101B1"/>
<path d="M74.4381 27.3072H67.9395V33.8788H74.4381V27.3072Z" fill="#0101B1"/>
<path d="M74.4381 33.8754H67.9395V40.447H74.4381V33.8754Z" fill="#0101B1"/>
<path d="M74.4381 40.4401H67.9395V47.0118H74.4381V40.4401Z" fill="#0101B1"/>
<path d="M74.4381 46.998H67.9395V53.5696H74.4381V46.998Z" fill="#0101B1"/>
<path d="M74.4381 53.5662H67.9395V60.1379H74.4381V53.5662Z" fill="#0101B1"/>
<path d="M74.4381 60.1516H67.9395V66.7232H74.4381V60.1516Z" fill="#0101B1"/>
<path d="M74.4381 66.7336H67.9395V73.3052H74.4381V66.7336Z" fill="#0101B1"/>
<path d="M74.4381 73.3088H67.9395V79.8804H74.4381V73.3088Z" fill="#0101B1"/>
<path d="M74.4381 79.8458H67.9395V86.4175H74.4381V79.8458Z" fill="#0101B1"/>
<path d="M9.4576 20.7011H2.95898V27.2727H9.4576V20.7011Z" fill="#0101B1"/>
<path d="M9.4576 27.2313H2.95898V33.803H9.4576V27.2313Z" fill="#0101B1"/>
<path d="M9.4576 33.7996H2.95898V40.3712H9.4576V33.7996Z" fill="#0101B1"/>
<path d="M9.4576 40.3677H2.95898V46.9394H9.4576V40.3677Z" fill="#0101B1"/>
<path d="M9.4576 1H2.95898V7.57164H9.4576V1Z" fill="#0101B1"/>
<path d="M9.4576 7.56818H2.95898V14.1398H9.4576V7.56818Z" fill="#0101B1"/>
<path d="M9.4576 14.1364H2.95898V20.708H9.4576V14.1364Z" fill="#0101B1"/>
<path d="M22.4102 7.57164V1L15.9115 1V7.57164H22.4102Z" fill="#0101B1"/>
<path d="M15.9531 7.57164V1L9.45451 1V7.57164H15.9531Z" fill="#0101B1"/>
<path d="M41.8926 7.57164V1L35.394 1V7.57164H41.8926Z" fill="#0101B1"/>
<path d="M35.4014 7.57505V1.00342L28.9027 1.00342V7.57505H35.4014Z" fill="#0101B1"/>
<path d="M54.9893 7.57163V1L48.3814 1V7.57163H54.9893Z" fill="#0101B1"/>
<path d="M48.3848 7.57163V1L41.8861 1V7.57163H48.3848Z" fill="#0101B1"/>
<path d="M42.7084 20.3421H49.207V13.7705H42.7084V20.3421Z" fill="#0101B1"/>
<path d="M42.7084 13.774H49.207V7.20235L42.7084 7.20235V13.774Z" fill="#0101B1"/>
<path d="M42.7084 33.5855H49.207V26.9034H42.7084V33.5855Z" fill="#0101B1"/>
<path d="M42.7084 26.9069H49.207V20.3352H42.7084V26.9069Z" fill="#0101B1"/>
<path d="M23.9633 27.2589H30.4619V20.6873H23.9633V27.2589Z" fill="#0101B1"/>
<path d="M23.8744 39.413H30.373V32.7309H23.8744V39.413Z" fill="#0101B1"/>
<path d="M62.3203 27.0036V33.5752H68.8189V27.0036H62.3203Z" fill="#0101B1"/>
<path d="M49.2207 27.0036V33.5752H55.8285V27.0036H49.2207Z" fill="#0101B1"/>
<path d="M55.8291 27.0036V33.5752H62.3277V27.0036H55.8291Z" fill="#0101B1"/>
<path d="M28.9062 7.57505V1.00342L22.4076 1.00342V7.57505H28.9062Z" fill="#0101B1"/>
<path d="M9.4576 46.9221H2.95898V53.4937H9.4576V46.9221Z" fill="#0101B1"/>
<path d="M9.4576 53.4902H2.95898V60.0619H9.4576V53.4902Z" fill="#0101B1"/>
<path d="M9.4576 60.0757H2.95898V66.6474H9.4576V60.0757Z" fill="#0101B1"/>
<path d="M9.4576 66.6611H2.95898V73.2328H9.4576V66.6611Z" fill="#0101B1"/>
<path d="M9.4576 73.2328H2.95898V79.8044H9.4576V73.2328Z" fill="#0101B1"/>
<path d="M67.9531 86.3761V79.8044H61.4545V86.3761H67.9531Z" fill="#0101B1"/>
<path d="M61.457 86.3761V79.8044H54.9584V86.3761H61.457Z" fill="#0101B1"/>
<path d="M55.0332 86.3761V79.8044H48.3298V86.3761H55.0332Z" fill="#0101B1"/>
<path d="M48.4121 86.3761V79.8044H41.9135V86.3761H48.4121Z" fill="#0101B1"/>
<path d="M41.916 86.3761V79.8044H35.4174V86.3761H41.916Z" fill="#0101B1"/>
<path d="M35.5889 86.3726V79.801H28.7319V86.3726H35.5889Z" fill="#0101B1"/>
<path d="M28.8955 86.3726V79.801H22.3969V86.3726H28.8955Z" fill="#0101B1"/>
<path d="M22.3936 86.3761V79.8044H15.8949V86.3761H22.3936Z" fill="#0101B1"/>
<path d="M15.9287 86.3726V79.801H9.4301V86.3726H15.9287Z" fill="#0101B1"/>
<path d="M29.5713 67.5171V60.9454H23.0727V67.5171H29.5713Z" fill="#0101B1"/>
<path d="M55.5801 67.5171V60.9454H49.0815V67.5171H55.5801Z" fill="#0101B1"/>
<path d="M49.0908 60.942V54.3704H42.5922V60.942H49.0908Z" fill="#0101B1"/>
<path d="M42.5996 60.942V54.3704H36.101V60.942H42.5996Z" fill="#0101B1"/>
<path d="M36.1182 60.9454V54.3738H29.6195V60.9454H36.1182Z" fill="#0101B1"/>
<path d="M9.45508 86.3761V79.8044H2.95646V86.3761H9.45508Z" fill="#0101B1"/>
<path d="M30.459 27.0036V33.5752H36.9576V27.0036H30.459Z" fill="#0101B1"/>
<path d="M17.3633 27.0036V33.5752H23.9711V27.0036H17.3633Z" fill="#0101B1"/>
<path d="M23.9678 27.0036V33.5752H30.4664V27.0036H23.9678Z" fill="#0101B1"/>
</g>
<path d="M1.42578 109.508V108.082H5.71289V109.508H1.42578ZM5.71289 108.082V106.656H7.13867V108.082H5.71289ZM0 108.082V100.943H1.42578V103.795H5.71289V100.943H7.13867V105.23H1.42578V108.082H0ZM1.42578 100.943V99.5076H5.71289V100.943H1.42578ZM10.4688 109.508V99.5076H11.8945V100.943H13.3203V102.369H11.8945V109.508H10.4688ZM13.3203 100.943V99.5076H14.7461V100.943H13.3203ZM17.3633 109.508V99.5076H18.7891V100.943H20.2148V102.369H18.7891V109.508H17.3633ZM20.2148 100.943V99.5076H21.6406V100.943H20.2148ZM25.6836 109.508V108.082H29.9707V109.508H25.6836ZM24.2578 108.082V100.943H25.6836V108.082H24.2578ZM29.9707 108.082V100.943H31.3965V108.082H29.9707ZM25.6836 100.943V99.5076H29.9707V100.943H25.6836ZM34.7266 109.508V99.5076H36.1523V100.943H37.5781V102.369H36.1523V109.508H34.7266ZM37.5781 100.943V99.5076H39.0039V100.943H37.5781ZM48.2227 109.508V102.369H41.0938V95.2302H42.5098V100.943H48.2227V95.2302H49.6484V109.508H48.2227ZM52.9883 109.508V108.082H54.4141V109.508H52.9883ZM60.6055 109.508V108.082H63.4668V109.508H60.6055ZM57.7539 115.22V100.943H59.1797V106.656H60.6055V108.082H59.1797V115.22H57.7539ZM63.4668 108.082V100.943H64.8926V108.082H63.4668ZM59.1797 100.943V99.5076H63.4668V100.943H59.1797ZM69.6484 109.508V108.082H73.9355V109.508H69.6484ZM68.2227 108.082V106.656H69.6484V108.082H68.2227ZM73.9355 108.082V105.23H75.3613V108.082H73.9355ZM69.6484 105.23V103.795H73.9355V105.23H69.6484ZM68.2227 103.795V100.943H69.6484V103.795H68.2227ZM73.9355 102.369V100.943H75.3613V102.369H73.9355ZM69.6484 100.943V99.5076H73.9355V100.943H69.6484Z" fill="#6CEB1A"/>
<defs>
<filter id="filter0_d_355_552" x="1.95605" y="0" width="89.4824" height="103.417" filterUnits="userSpaceOnUse" color-interpolation-filters="sRGB">
<feFlood flood-opacity="0" result="BackgroundImageFix"/>
<feColorMatrix in="SourceAlpha" type="matrix" values="0 0 0 0 0 0 0 0 0 0 0 0 0 0 0 0 0 0 127 0" result="hardAlpha"/>
<feOffset dx="8" dy="8"/>
<feGaussianBlur stdDeviation="4.5"/>
<feComposite in2="hardAlpha" operator="out"/>
<feColorMatrix type="matrix" values="0 0 0 0 0 0 0 0 0 0 0 0 0 0 0 0 0 0 0.25 0"/>
<feBlend mode="normal" in2="BackgroundImageFix" result="effect1_dropShadow_355_552"/>
<feBlend mode="normal" in="SourceGraphic" in2="effect1_dropShadow_355_552" result="shape"/>
</filter>
</defs>
</svg>
