<svg width="90" height="116" viewBox="0 0 90 116" fill="none" xmlns="http://www.w3.org/2000/svg">
<g filter="url(#filter0_d_355_555)">
<path d="M4.25195 4.28583H49.7286L69.2313 24.0629V83.1317H4.25195V4.28583Z" fill="#C7F2FF"/>
<path d="M65.9855 14.2986H59.5586V20.7805H65.9855V14.2986Z" fill="#6CEB1A"/>
<path d="M59.5586 7.58893H53.0293V14.2986H59.5586V7.58893Z" fill="#6CEB1A"/>
<path d="M72.482 20.777H65.9834V27.3487H72.482V20.777Z" fill="#6CEB1A"/>
<path d="M72.482 27.3073H65.9834V33.8789H72.482V27.3073Z" fill="#6CEB1A"/>
<path d="M72.482 33.8754H65.9834V40.4471H72.482V33.8754Z" fill="#6CEB1A"/>
<path d="M72.482 40.4402H65.9834V47.0118H72.482V40.4402Z" fill="#6CEB1A"/>
<path d="M72.482 46.998H65.9834V53.5696H72.482V46.998Z" fill="#6CEB1A"/>
<path d="M72.482 53.5662H65.9834V60.1379H72.482V53.5662Z" fill="#6CEB1A"/>
<path d="M72.482 60.1516H65.9834V66.7232H72.482V60.1516Z" fill="#6CEB1A"/>
<path d="M72.482 66.7336H65.9834V73.3053H72.482V66.7336Z" fill="#6CEB1A"/>
<path d="M72.482 73.3087H65.9834V79.8804H72.482V73.3087Z" fill="#6CEB1A"/>
<path d="M72.482 79.8458H65.9834V86.4175H72.482V79.8458Z" fill="#6CEB1A"/>
<path d="M7.50155 20.7011H1.00293V27.2727H7.50155V20.7011Z" fill="#6CEB1A"/>
<path d="M7.50155 27.2313H1.00293V33.803H7.50155V27.2313Z" fill="#6CEB1A"/>
<path d="M7.50155 33.7996H1.00293V40.3712H7.50155V33.7996Z" fill="#6CEB1A"/>
<path d="M7.50155 40.3677H1.00293V46.9393H7.50155V40.3677Z" fill="#6CEB1A"/>
<path d="M7.50252 1H1.00391V7.57164H7.50252V1Z" fill="#6CEB1A"/>
<path d="M7.50155 7.56818H1.00293V14.1398H7.50155V7.56818Z" fill="#6CEB1A"/>
<path d="M7.50155 14.1364H1.00293V20.708H7.50155V14.1364Z" fill="#6CEB1A"/>
<path d="M20.4541 7.57164V1L13.9555 1V7.57164H20.4541Z" fill="#6CEB1A"/>
<path d="M13.9971 7.57164V1L7.49845 1V7.57164H13.9971Z" fill="#6CEB1A"/>
<path d="M39.9365 7.57164V1L33.4379 1V7.57164H39.9365Z" fill="#6CEB1A"/>
<path d="M33.4453 7.57505V1.00342L26.9467 1.00342V7.57505H33.4453Z" fill="#6CEB1A"/>
<path d="M53.0332 7.57163V1L46.4254 1V7.57163H53.0332Z" fill="#6CEB1A"/>
<path d="M46.4287 7.57163V1L39.9301 1V7.57163H46.4287Z" fill="#6CEB1A"/>
<path d="M40.7524 20.3422H47.251V13.7705H40.7524V20.3422Z" fill="#6CEB1A"/>
<path d="M40.7524 13.7739H47.251V7.20229L40.7524 7.20229V13.7739Z" fill="#6CEB1A"/>
<path d="M40.7524 33.5855H47.251V26.9034H40.7524V33.5855Z" fill="#6CEB1A"/>
<path d="M40.7524 26.9069H47.251V20.3353H40.7524V26.9069Z" fill="#6CEB1A"/>
<path d="M22.0072 27.259H28.5059V20.6873H22.0072V27.259Z" fill="#6CEB1A"/>
<path d="M21.9184 39.4129H28.417V32.7308H21.9184V39.4129Z" fill="#6CEB1A"/>
<path d="M60.3643 27.0035V33.5751H66.8629V27.0035H60.3643Z" fill="#6CEB1A"/>
<path d="M47.2646 27.0035V33.5751H53.8725V27.0035H47.2646Z" fill="#6CEB1A"/>
<path d="M53.873 27.0035V33.5751H60.3717V27.0035H53.873Z" fill="#6CEB1A"/>
<path d="M26.9502 7.57505V1.00342L20.4516 1.00342V7.57505H26.9502Z" fill="#6CEB1A"/>
<path d="M7.50155 46.9221H1.00293V53.4937H7.50155V46.9221Z" fill="#6CEB1A"/>
<path d="M7.50155 53.4902H1.00293V60.0619H7.50155V53.4902Z" fill="#6CEB1A"/>
<path d="M7.50155 60.0757H1.00293V66.6473H7.50155V60.0757Z" fill="#6CEB1A"/>
<path d="M7.50155 66.6611H1.00293V73.2328H7.50155V66.6611Z" fill="#6CEB1A"/>
<path d="M7.50155 73.2328H1.00293V79.8044H7.50155V73.2328Z" fill="#6CEB1A"/>
<path d="M65.9971 86.3761V79.8044H59.4985V86.3761H65.9971Z" fill="#6CEB1A"/>
<path d="M59.501 86.3761V79.8044H53.0024V86.3761H59.501Z" fill="#6CEB1A"/>
<path d="M53.0771 86.3761V79.8044H46.3737V86.3761H53.0771Z" fill="#6CEB1A"/>
<path d="M46.4561 86.3761V79.8044H39.9574V86.3761H46.4561Z" fill="#6CEB1A"/>
<path d="M39.96 86.3761V79.8044H33.4613V86.3761H39.96Z" fill="#6CEB1A"/>
<path d="M33.6328 86.3726V79.801H26.7758V86.3726H33.6328Z" fill="#6CEB1A"/>
<path d="M26.9395 86.3726V79.801H20.4408V86.3726H26.9395Z" fill="#6CEB1A"/>
<path d="M20.4375 86.3761V79.8044H13.9389V86.3761H20.4375Z" fill="#6CEB1A"/>
<path d="M13.9727 86.3726V79.801H7.47404V86.3726H13.9727Z" fill="#6CEB1A"/>
<path d="M27.6152 67.5171V60.9455H21.1166V67.5171H27.6152Z" fill="#6CEB1A"/>
<path d="M53.624 67.5171V60.9455H47.1254V67.5171H53.624Z" fill="#6CEB1A"/>
<path d="M47.1348 60.9421V54.3704H40.6362V60.9421H47.1348Z" fill="#6CEB1A"/>
<path d="M40.6436 60.9421V54.3704H34.1449V60.9421H40.6436Z" fill="#6CEB1A"/>
<path d="M34.1621 60.9455V54.3738H27.6635V60.9455H34.1621Z" fill="#6CEB1A"/>
<path d="M7.49902 86.3761V79.8044H1.00041V86.3761H7.49902Z" fill="#6CEB1A"/>
<path d="M28.5029 27.0035V33.5751H35.0015V27.0035H28.5029Z" fill="#6CEB1A"/>
<path d="M15.4072 27.0035V33.5751H22.0151V27.0035H15.4072Z" fill="#6CEB1A"/>
<path d="M22.0117 27.0035V33.5751H28.5103V27.0035H22.0117Z" fill="#6CEB1A"/>
</g>
<path d="M2.42578 109.883V108.457H6.71289V109.883H2.42578ZM6.71289 108.457V107.031H8.13867V108.457H6.71289ZM1 108.457V101.318H2.42578V104.17H6.71289V101.318H8.13867V105.606H2.42578V108.457H1ZM2.42578 101.318V99.8829H6.71289V101.318H2.42578ZM11.4688 109.883V99.8829H12.8945V101.318H14.3203V102.744H12.8945V109.883H11.4688ZM14.3203 101.318V99.8829H15.7461V101.318H14.3203ZM18.3633 109.883V99.8829H19.7891V101.318H21.2148V102.744H19.7891V109.883H18.3633ZM21.2148 101.318V99.8829H22.6406V101.318H21.2148ZM26.6836 109.883V108.457H30.9707V109.883H26.6836ZM25.2578 108.457V101.318H26.6836V108.457H25.2578ZM30.9707 108.457V101.318H32.3965V108.457H30.9707ZM26.6836 101.318V99.8829H30.9707V101.318H26.6836ZM37.1523 109.883V108.457H42.8652V109.883H37.1523ZM35.7266 108.457V107.031H37.1523V108.457H35.7266ZM42.8652 108.457V102.744H44.291V108.457H42.8652ZM35.7266 102.744V95.6056H42.8652V97.0314H37.1523V101.318H42.8652V102.744H35.7266ZM47.2695 109.883V108.457H48.6953V109.883H47.2695ZM54.8867 109.883V108.457H57.748V109.883H54.8867ZM52.0352 115.596V101.318H53.4609V107.031H54.8867V108.457H53.4609V115.596H52.0352ZM57.748 108.457V101.318H59.1738V108.457H57.748ZM53.4609 101.318V99.8829H57.748V101.318H53.4609ZM63.9297 109.883V108.457H68.2168V109.883H63.9297ZM62.5039 108.457V107.031H63.9297V108.457H62.5039ZM68.2168 108.457V105.606H69.6426V108.457H68.2168ZM63.9297 105.606V104.17H68.2168V105.606H63.9297ZM62.5039 104.17V101.318H63.9297V104.17H62.5039ZM68.2168 102.744V101.318H69.6426V102.744H68.2168ZM63.9297 101.318V99.8829H68.2168V101.318H63.9297Z" fill="white"/>
<defs>
<filter id="filter0_d_355_555" x="0" y="0" width="89.4824" height="103.417" filterUnits="userSpaceOnUse" color-interpolation-filters="sRGB">
<feFlood flood-opacity="0" result="BackgroundImageFix"/>
<feColorMatrix in="SourceAlpha" type="matrix" values="0 0 0 0 0 0 0 0 0 0 0 0 0 0 0 0 0 0 127 0" result="hardAlpha"/>
<feOffset dx="8" dy="8"/>
<feGaussianBlur stdDeviation="4.5"/>
<feComposite in2="hardAlpha" operator="out"/>
<feColorMatrix type="matrix" values="0 0 0 0 0 0 0 0 0 0 0 0 0 0 0 0 0 0 0.25 0"/>
<feBlend mode="normal" in2="BackgroundImageFix" result="effect1_dropShadow_355_555"/>
<feBlend mode="normal" in="SourceGraphic" in2="effect1_dropShadow_355_555" result="shape"/>
</filter>
</defs>
</svg>
