<svg width="105" height="124" viewBox="0 0 105 124" fill="none" xmlns="http://www.w3.org/2000/svg">
<g filter="url(#filter0_d_314_1557)">
<g filter="url(#filter1_d_314_1557)">
<path d="M19.252 4.28583H64.7286L84.2313 24.0629V83.1317H19.252V4.28583Z" fill="#D9D9D9"/>
<path d="M80.9855 14.2986H74.5586V20.7805H80.9855V14.2986Z" fill="#0101B1"/>
<path d="M74.5586 7.58893H68.0293V14.2986H74.5586V7.58893Z" fill="#0101B1"/>
<path d="M87.482 20.777H80.9834V27.3487H87.482V20.777Z" fill="#0101B1"/>
<path d="M87.482 27.3073H80.9834V33.8789H87.482V27.3073Z" fill="#0101B1"/>
<path d="M87.482 33.8755H80.9834V40.4471H87.482V33.8755Z" fill="#0101B1"/>
<path d="M87.482 40.4402H80.9834V47.0119H87.482V40.4402Z" fill="#0101B1"/>
<path d="M87.482 46.998H80.9834V53.5697H87.482V46.998Z" fill="#0101B1"/>
<path d="M87.482 53.5662H80.9834V60.1379H87.482V53.5662Z" fill="#0101B1"/>
<path d="M87.482 60.1516H80.9834V66.7232H87.482V60.1516Z" fill="#0101B1"/>
<path d="M87.482 66.7336H80.9834V73.3053H87.482V66.7336Z" fill="#0101B1"/>
<path d="M87.482 73.3087H80.9834V79.8804H87.482V73.3087Z" fill="#0101B1"/>
<path d="M87.482 79.8459H80.9834V86.4175H87.482V79.8459Z" fill="#0101B1"/>
<path d="M22.5015 20.7011H16.0029V27.2727H22.5015V20.7011Z" fill="#0101B1"/>
<path d="M22.5015 27.2314H16.0029V33.803H22.5015V27.2314Z" fill="#0101B1"/>
<path d="M22.5015 33.7996H16.0029V40.3712H22.5015V33.7996Z" fill="#0101B1"/>
<path d="M22.5015 40.3677H16.0029V46.9393H22.5015V40.3677Z" fill="#0101B1"/>
<path d="M22.5015 1H16.0029V7.57164H22.5015V1Z" fill="#0101B1"/>
<path d="M22.5015 7.56824H16.0029V14.1399H22.5015V7.56824Z" fill="#0101B1"/>
<path d="M22.5015 14.1364H16.0029V20.708H22.5015V14.1364Z" fill="#0101B1"/>
<path d="M35.4541 7.57164V1L28.9555 1V7.57164H35.4541Z" fill="#0101B1"/>
<path d="M28.9971 7.57164V1L22.4985 1V7.57164H28.9971Z" fill="#0101B1"/>
<path d="M54.9365 7.57164V1L48.4379 1V7.57164H54.9365Z" fill="#0101B1"/>
<path d="M48.4453 7.57512V1.00348L41.9467 1.00348V7.57512H48.4453Z" fill="#0101B1"/>
<path d="M68.0332 7.57163V1L61.4254 1V7.57163H68.0332Z" fill="#0101B1"/>
<path d="M61.4287 7.57163V1L54.9301 1V7.57163H61.4287Z" fill="#0101B1"/>
<path d="M55.7524 20.3422H62.251V13.7705H55.7524V20.3422Z" fill="#0101B1"/>
<path d="M55.7524 13.774H62.251V7.20235L55.7524 7.20235V13.774Z" fill="#0101B1"/>
<path d="M55.7524 33.5856H62.251V26.9035H55.7524V33.5856Z" fill="#0101B1"/>
<path d="M55.7524 26.9069H62.251V20.3353H55.7524V26.9069Z" fill="#0101B1"/>
<path d="M37.0072 27.259H43.5059V20.6873H37.0072V27.259Z" fill="#0101B1"/>
<path d="M36.9184 39.4129H43.417V32.7308H36.9184V39.4129Z" fill="#0101B1"/>
<path d="M75.3643 27.0036V33.5752H81.8629V27.0036H75.3643Z" fill="#0101B1"/>
<path d="M62.2646 27.0036V33.5752H68.8725V27.0036H62.2646Z" fill="#0101B1"/>
<path d="M68.873 27.0036V33.5752H75.3717V27.0036H68.873Z" fill="#0101B1"/>
<path d="M41.9502 7.57511V1.00348L35.4516 1.00348V7.57511H41.9502Z" fill="#0101B1"/>
<path d="M22.5015 46.9221H16.0029V53.4937H22.5015V46.9221Z" fill="#0101B1"/>
<path d="M22.5015 53.4902H16.0029V60.0619H22.5015V53.4902Z" fill="#0101B1"/>
<path d="M22.5015 60.0757H16.0029V66.6474H22.5015V60.0757Z" fill="#0101B1"/>
<path d="M22.5015 66.6612H16.0029V73.2328H22.5015V66.6612Z" fill="#0101B1"/>
<path d="M22.5015 73.2328H16.0029V79.8044H22.5015V73.2328Z" fill="#0101B1"/>
<path d="M80.9971 86.3761V79.8044H74.4985V86.3761H80.9971Z" fill="#0101B1"/>
<path d="M74.501 86.3761V79.8044H68.0024V86.3761H74.501Z" fill="#0101B1"/>
<path d="M68.0771 86.3761V79.8044H61.3737V86.3761H68.0771Z" fill="#0101B1"/>
<path d="M61.4561 86.3761V79.8044H54.9574V86.3761H61.4561Z" fill="#0101B1"/>
<path d="M54.96 86.3761V79.8044H48.4613V86.3761H54.96Z" fill="#0101B1"/>
<path d="M48.6328 86.3727V79.801H41.7758V86.3727H48.6328Z" fill="#0101B1"/>
<path d="M41.9395 86.3727V79.801H35.4408V86.3727H41.9395Z" fill="#0101B1"/>
<path d="M35.4375 86.3761V79.8044H28.9389V86.3761H35.4375Z" fill="#0101B1"/>
<path d="M28.9727 86.3727V79.801H22.474V86.3727H28.9727Z" fill="#0101B1"/>
<path d="M42.6152 67.5171V60.9455H36.1166V67.5171H42.6152Z" fill="#0101B1"/>
<path d="M68.624 67.5171V60.9455H62.1254V67.5171H68.624Z" fill="#0101B1"/>
<path d="M62.1348 60.9421V54.3704H55.6362V60.9421H62.1348Z" fill="#0101B1"/>
<path d="M55.6436 60.9421V54.3704H49.1449V60.9421H55.6436Z" fill="#0101B1"/>
<path d="M49.1621 60.9455V54.3739H42.6635V60.9455H49.1621Z" fill="#0101B1"/>
<path d="M22.499 86.3761V79.8044H16.0004V86.3761H22.499Z" fill="#0101B1"/>
<path d="M43.5029 27.0036V33.5752H50.0015V27.0036H43.5029Z" fill="#0101B1"/>
<path d="M30.4072 27.0036V33.5752H37.0151V27.0036H30.4072Z" fill="#0101B1"/>
<path d="M37.0117 27.0036V33.5752H43.5103V27.0036H37.0117Z" fill="#0101B1"/>
</g>
<path d="M5.42578 109.592V108.166H9.71289V109.592H5.42578ZM9.71289 108.166V106.74H11.1387V108.166H9.71289ZM4 108.166V101.027H5.42578V103.879H9.71289V101.027H11.1387V105.314H5.42578V108.166H4ZM5.42578 101.027V99.5916H9.71289V101.027H5.42578ZM14.4688 109.592V99.5916H15.8945V101.027H17.3203V102.453H15.8945V109.592H14.4688ZM17.3203 101.027V99.5916H18.7461V101.027H17.3203ZM21.3633 109.592V99.5916H22.7891V101.027H24.2148V102.453H22.7891V109.592H21.3633ZM24.2148 101.027V99.5916H25.6406V101.027H24.2148ZM29.6836 109.592V108.166H33.9707V109.592H29.6836ZM28.2578 108.166V101.027H29.6836V108.166H28.2578ZM33.9707 108.166V101.027H35.3965V108.166H33.9707ZM29.6836 101.027V99.5916H33.9707V101.027H29.6836ZM38.7266 109.592V99.5916H40.1523V101.027H41.5781V102.453H40.1523V109.592H38.7266ZM41.5781 101.027V99.5916H43.0039V101.027H41.5781ZM47.0469 109.592V108.166H52.7598V109.592H47.0469ZM45.6211 108.166V106.74H47.0469V108.166H45.6211ZM52.7598 108.166V102.453H54.1855V108.166H52.7598ZM45.6211 102.453V95.3142H52.7598V96.74H47.0469V101.027H52.7598V102.453H45.6211ZM57.1641 109.592V108.166H58.5898V109.592H57.1641ZM61.9297 109.592V101.027H63.3555V109.592H61.9297ZM67.6426 109.592V101.027H69.0684V109.592H67.6426ZM73.3555 109.592V101.027H74.7812V109.592H73.3555ZM63.3555 101.027V99.5916H67.6426V101.027H63.3555ZM69.0684 101.027V99.5916H73.3555V101.027H69.0684ZM80.9727 109.592V108.166H83.834V109.592H80.9727ZM78.1211 115.304V101.027H79.5469V106.74H80.9727V108.166H79.5469V115.304H78.1211ZM83.834 108.166V101.027H85.2598V108.166H83.834ZM79.5469 101.027V99.5916H83.834V101.027H79.5469ZM89.3027 109.592V108.166H95.0156V109.592H89.3027ZM87.877 108.166V106.74H89.3027V108.166H87.877ZM95.0156 108.166V102.453H96.4414V108.166H95.0156ZM90.7285 102.453V101.027H95.0156V102.453H90.7285ZM87.877 98.1658V96.74H89.3027V98.1658H87.877ZM95.0156 101.027V96.74H96.4414V101.027H95.0156ZM89.3027 96.74V95.3142H95.0156V96.74H89.3027Z" fill="white"/>
</g>
<defs>
<filter id="filter0_d_314_1557" x="0" y="1" width="100.441" height="122.304" filterUnits="userSpaceOnUse" color-interpolation-filters="sRGB">
<feFlood flood-opacity="0" result="BackgroundImageFix"/>
<feColorMatrix in="SourceAlpha" type="matrix" values="0 0 0 0 0 0 0 0 0 0 0 0 0 0 0 0 0 0 127 0" result="hardAlpha"/>
<feOffset dy="4"/>
<feGaussianBlur stdDeviation="2"/>
<feComposite in2="hardAlpha" operator="out"/>
<feColorMatrix type="matrix" values="0 0 0 0 0 0 0 0 0 0 0 0 0 0 0 0 0 0 0.25 0"/>
<feBlend mode="normal" in2="BackgroundImageFix" result="effect1_dropShadow_314_1557"/>
<feBlend mode="normal" in="SourceGraphic" in2="effect1_dropShadow_314_1557" result="shape"/>
</filter>
<filter id="filter1_d_314_1557" x="15" y="0" width="89.4824" height="103.418" filterUnits="userSpaceOnUse" color-interpolation-filters="sRGB">
<feFlood flood-opacity="0" result="BackgroundImageFix"/>
<feColorMatrix in="SourceAlpha" type="matrix" values="0 0 0 0 0 0 0 0 0 0 0 0 0 0 0 0 0 0 127 0" result="hardAlpha"/>
<feOffset dx="8" dy="8"/>
<feGaussianBlur stdDeviation="4.5"/>
<feComposite in2="hardAlpha" operator="out"/>
<feColorMatrix type="matrix" values="0 0 0 0 0 0 0 0 0 0 0 0 0 0 0 0 0 0 0.25 0"/>
<feBlend mode="normal" in2="BackgroundImageFix" result="effect1_dropShadow_314_1557"/>
<feBlend mode="normal" in="SourceGraphic" in2="effect1_dropShadow_314_1557" result="shape"/>
</filter>
</defs>
</svg>
