<svg width="95" height="117" viewBox="0 0 95 117" fill="none" xmlns="http://www.w3.org/2000/svg">
<path d="M1.42578 110.998V109.573H5.71289V110.998H1.42578ZM5.71289 109.573V108.147H7.13867V109.573H5.71289ZM0 109.573V102.434H1.42578V105.285H5.71289V102.434H7.13867V106.721H1.42578V109.573H0ZM1.42578 102.434V100.998H5.71289V102.434H1.42578ZM10.4688 110.998V100.998H11.8945V102.434H13.3203V103.86H11.8945V110.998H10.4688ZM13.3203 102.434V100.998H14.7461V102.434H13.3203ZM17.3633 110.998V100.998H18.7891V102.434H20.2148V103.86H18.7891V110.998H17.3633ZM20.2148 102.434V100.998H21.6406V102.434H20.2148ZM25.6836 110.998V109.573H29.9707V110.998H25.6836ZM24.2578 109.573V102.434H25.6836V109.573H24.2578ZM29.9707 109.573V102.434H31.3965V109.573H29.9707ZM25.6836 102.434V100.998H29.9707V102.434H25.6836ZM34.7266 110.998V100.998H36.1523V102.434H37.5781V103.86H36.1523V110.998H34.7266ZM37.5781 102.434V100.998H39.0039V102.434H37.5781ZM43.0469 110.998V109.573H48.7598V110.998H43.0469ZM48.7598 109.573V103.86H50.1855V109.573H48.7598ZM41.6211 109.573V98.1467H43.0469V102.434H48.7598V103.86H43.0469V109.573H41.6211ZM43.0469 98.1467V96.7209H48.7598V98.1467H43.0469ZM53.1641 110.998V109.573H54.5898V110.998H53.1641ZM57.9297 110.998V108.147H59.3555V109.573H65.0684V110.998H57.9297ZM59.3555 108.147V106.721H60.7812V108.147H59.3555ZM60.7812 106.721V105.285H62.207V106.721H60.7812ZM62.207 105.285V103.86H63.6426V105.285H62.207ZM63.6426 103.86V102.434H57.9297V100.998H65.0684V103.86H63.6426ZM68.3984 110.998V100.998H69.8242V110.998H68.3984ZM68.3984 99.5725V98.1467H69.8242V99.5725H68.3984ZM76.0156 110.998V109.573H78.877V110.998H76.0156ZM73.1641 116.711V102.434H74.5898V108.147H76.0156V109.573H74.5898V116.711H73.1641ZM78.877 109.573V102.434H80.3027V109.573H78.877ZM74.5898 102.434V100.998H78.877V102.434H74.5898Z" fill="#6CEB1A"/>
<g filter="url(#filter0_d_355_554)">
<path d="M9.25195 4.28583H54.7286L74.2313 24.0629V83.1317H9.25195V4.28583Z" fill="#5D606A"/>
<path d="M70.9855 14.2986H64.5586V20.7805H70.9855V14.2986Z" fill="#C7F2FF"/>
<path d="M64.5586 7.58893H58.0293V14.2986H64.5586V7.58893Z" fill="#C7F2FF"/>
<path d="M77.482 20.777H70.9834V27.3487H77.482V20.777Z" fill="#C7F2FF"/>
<path d="M77.482 27.3073H70.9834V33.8789H77.482V27.3073Z" fill="#C7F2FF"/>
<path d="M77.482 33.8754H70.9834V40.4471H77.482V33.8754Z" fill="#C7F2FF"/>
<path d="M77.482 40.4402H70.9834V47.0118H77.482V40.4402Z" fill="#C7F2FF"/>
<path d="M77.482 46.998H70.9834V53.5696H77.482V46.998Z" fill="#C7F2FF"/>
<path d="M77.482 53.5662H70.9834V60.1379H77.482V53.5662Z" fill="#C7F2FF"/>
<path d="M77.482 60.1516H70.9834V66.7232H77.482V60.1516Z" fill="#C7F2FF"/>
<path d="M77.482 66.7336H70.9834V73.3053H77.482V66.7336Z" fill="#C7F2FF"/>
<path d="M77.482 73.3087H70.9834V79.8804H77.482V73.3087Z" fill="#C7F2FF"/>
<path d="M77.482 79.8458H70.9834V86.4175H77.482V79.8458Z" fill="#C7F2FF"/>
<path d="M12.5015 20.7011H6.00293V27.2727H12.5015V20.7011Z" fill="#C7F2FF"/>
<path d="M12.5015 27.2313H6.00293V33.803H12.5015V27.2313Z" fill="#C7F2FF"/>
<path d="M12.5015 33.7996H6.00293V40.3712H12.5015V33.7996Z" fill="#C7F2FF"/>
<path d="M12.5015 40.3677H6.00293V46.9393H12.5015V40.3677Z" fill="#C7F2FF"/>
<path d="M12.5015 1H6.00293V7.57164H12.5015V1Z" fill="#C7F2FF"/>
<path d="M12.5015 7.56818H6.00293V14.1398H12.5015V7.56818Z" fill="#C7F2FF"/>
<path d="M12.5015 14.1364H6.00293V20.708H12.5015V14.1364Z" fill="#C7F2FF"/>
<path d="M25.4541 7.57164V1L18.9555 1V7.57164H25.4541Z" fill="#C7F2FF"/>
<path d="M18.9971 7.57164V1L12.4985 1V7.57164H18.9971Z" fill="#C7F2FF"/>
<path d="M44.9365 7.57164V1L38.4379 1V7.57164H44.9365Z" fill="#C7F2FF"/>
<path d="M38.4453 7.57505V1.00342L31.9467 1.00342V7.57505H38.4453Z" fill="#C7F2FF"/>
<path d="M58.0332 7.57163V1L51.4254 1V7.57163H58.0332Z" fill="#C7F2FF"/>
<path d="M51.4287 7.57163V1L44.9301 1V7.57163H51.4287Z" fill="#C7F2FF"/>
<path d="M45.7524 20.3422H52.251V13.7705H45.7524V20.3422Z" fill="#C7F2FF"/>
<path d="M45.7524 13.7739H52.251V7.20229L45.7524 7.20229V13.7739Z" fill="#C7F2FF"/>
<path d="M45.7524 33.5855H52.251V26.9034H45.7524V33.5855Z" fill="#C7F2FF"/>
<path d="M45.7524 26.9069H52.251V20.3353H45.7524V26.9069Z" fill="#C7F2FF"/>
<path d="M27.0072 27.259H33.5059V20.6873H27.0072V27.259Z" fill="#C7F2FF"/>
<path d="M26.9184 39.4129H33.417V32.7308H26.9184V39.4129Z" fill="#C7F2FF"/>
<path d="M65.3643 27.0035V33.5751H71.8629V27.0035H65.3643Z" fill="#C7F2FF"/>
<path d="M52.2646 27.0035V33.5751H58.8725V27.0035H52.2646Z" fill="#C7F2FF"/>
<path d="M58.873 27.0035V33.5751H65.3717V27.0035H58.873Z" fill="#C7F2FF"/>
<path d="M31.9502 7.57505V1.00342L25.4516 1.00342V7.57505H31.9502Z" fill="#C7F2FF"/>
<path d="M12.5015 46.9221H6.00293V53.4937H12.5015V46.9221Z" fill="#C7F2FF"/>
<path d="M12.5015 53.4902H6.00293V60.0619H12.5015V53.4902Z" fill="#C7F2FF"/>
<path d="M12.5015 60.0757H6.00293V66.6473H12.5015V60.0757Z" fill="#C7F2FF"/>
<path d="M12.5015 66.6611H6.00293V73.2328H12.5015V66.6611Z" fill="#C7F2FF"/>
<path d="M12.5015 73.2328H6.00293V79.8044H12.5015V73.2328Z" fill="#C7F2FF"/>
<path d="M70.9971 86.3761V79.8044H64.4985V86.3761H70.9971Z" fill="#C7F2FF"/>
<path d="M64.501 86.3761V79.8044H58.0024V86.3761H64.501Z" fill="#C7F2FF"/>
<path d="M58.0771 86.3761V79.8044H51.3737V86.3761H58.0771Z" fill="#C7F2FF"/>
<path d="M51.4561 86.3761V79.8044H44.9574V86.3761H51.4561Z" fill="#C7F2FF"/>
<path d="M44.96 86.3761V79.8044H38.4613V86.3761H44.96Z" fill="#C7F2FF"/>
<path d="M38.6328 86.3726V79.801H31.7758V86.3726H38.6328Z" fill="#C7F2FF"/>
<path d="M31.9395 86.3726V79.801H25.4408V86.3726H31.9395Z" fill="#C7F2FF"/>
<path d="M25.4375 86.3761V79.8044H18.9389V86.3761H25.4375Z" fill="#C7F2FF"/>
<path d="M18.9727 86.3726V79.801H12.474V86.3726H18.9727Z" fill="#C7F2FF"/>
<path d="M32.6152 67.5171V60.9455H26.1166V67.5171H32.6152Z" fill="#C7F2FF"/>
<path d="M58.624 67.5171V60.9455H52.1254V67.5171H58.624Z" fill="#C7F2FF"/>
<path d="M52.1348 60.9421V54.3704H45.6362V60.9421H52.1348Z" fill="#C7F2FF"/>
<path d="M45.6436 60.9421V54.3704H39.1449V60.9421H45.6436Z" fill="#C7F2FF"/>
<path d="M39.1621 60.9455V54.3738H32.6635V60.9455H39.1621Z" fill="#C7F2FF"/>
<path d="M12.499 86.3761V79.8044H6.00041V86.3761H12.499Z" fill="#C7F2FF"/>
<path d="M33.5029 27.0035V33.5751H40.0015V27.0035H33.5029Z" fill="#C7F2FF"/>
<path d="M20.4072 27.0035V33.5751H27.0151V27.0035H20.4072Z" fill="#C7F2FF"/>
<path d="M27.0117 27.0035V33.5751H33.5103V27.0035H27.0117Z" fill="#C7F2FF"/>
</g>
<defs>
<filter id="filter0_d_355_554" x="5" y="0" width="89.4824" height="103.417" filterUnits="userSpaceOnUse" color-interpolation-filters="sRGB">
<feFlood flood-opacity="0" result="BackgroundImageFix"/>
<feColorMatrix in="SourceAlpha" type="matrix" values="0 0 0 0 0 0 0 0 0 0 0 0 0 0 0 0 0 0 127 0" result="hardAlpha"/>
<feOffset dx="8" dy="8"/>
<feGaussianBlur stdDeviation="4.5"/>
<feComposite in2="hardAlpha" operator="out"/>
<feColorMatrix type="matrix" values="0 0 0 0 0 0 0 0 0 0 0 0 0 0 0 0 0 0 0.25 0"/>
<feBlend mode="normal" in2="BackgroundImageFix" result="effect1_dropShadow_355_554"/>
<feBlend mode="normal" in="SourceGraphic" in2="effect1_dropShadow_355_554" result="shape"/>
</filter>
</defs>
</svg>
