<svg width="95" height="116" viewBox="0 0 95 116" fill="none" xmlns="http://www.w3.org/2000/svg">
<g filter="url(#filter0_d_357_1074)">
<path d="M9.25195 4.28583H54.7286L74.2313 24.0629V83.1317H9.25195V4.28583Z" fill="#D9D9D9"/>
<path d="M70.9855 14.2986H64.5586V20.7805H70.9855V14.2986Z" fill="#0101B1"/>
<path d="M64.5586 7.58887H58.0293V14.2986H64.5586V7.58887Z" fill="#0101B1"/>
<path d="M77.482 20.777H70.9834V27.3486H77.482V20.777Z" fill="#0101B1"/>
<path d="M77.482 27.3072H70.9834V33.8788H77.482V27.3072Z" fill="#0101B1"/>
<path d="M77.482 33.8754H70.9834V40.447H77.482V33.8754Z" fill="#0101B1"/>
<path d="M77.482 40.4401H70.9834V47.0118H77.482V40.4401Z" fill="#0101B1"/>
<path d="M77.482 46.998H70.9834V53.5696H77.482V46.998Z" fill="#0101B1"/>
<path d="M77.482 53.5662H70.9834V60.1379H77.482V53.5662Z" fill="#0101B1"/>
<path d="M77.482 60.1516H70.9834V66.7232H77.482V60.1516Z" fill="#0101B1"/>
<path d="M77.482 66.7336H70.9834V73.3052H77.482V66.7336Z" fill="#0101B1"/>
<path d="M77.482 73.3088H70.9834V79.8804H77.482V73.3088Z" fill="#0101B1"/>
<path d="M77.482 79.8458H70.9834V86.4175H77.482V79.8458Z" fill="#0101B1"/>
<path d="M12.5015 20.7011H6.00293V27.2727H12.5015V20.7011Z" fill="#0101B1"/>
<path d="M12.5015 27.2313H6.00293V33.803H12.5015V27.2313Z" fill="#0101B1"/>
<path d="M12.5015 33.7996H6.00293V40.3712H12.5015V33.7996Z" fill="#0101B1"/>
<path d="M12.5015 40.3677H6.00293V46.9394H12.5015V40.3677Z" fill="#0101B1"/>
<path d="M12.5015 1H6.00293V7.57164H12.5015V1Z" fill="#0101B1"/>
<path d="M12.5015 7.56818H6.00293V14.1398H12.5015V7.56818Z" fill="#0101B1"/>
<path d="M12.5015 14.1364H6.00293V20.708H12.5015V14.1364Z" fill="#0101B1"/>
<path d="M25.4541 7.57164V1L18.9555 1V7.57164H25.4541Z" fill="#0101B1"/>
<path d="M18.9971 7.57164V1L12.4985 1V7.57164H18.9971Z" fill="#0101B1"/>
<path d="M44.9365 7.57164V1L38.4379 1V7.57164H44.9365Z" fill="#0101B1"/>
<path d="M38.4453 7.57505V1.00342L31.9467 1.00342V7.57505H38.4453Z" fill="#0101B1"/>
<path d="M58.0332 7.57163V1L51.4254 1V7.57163H58.0332Z" fill="#0101B1"/>
<path d="M51.4287 7.57163V1L44.9301 1V7.57163H51.4287Z" fill="#0101B1"/>
<path d="M45.7524 20.3421H52.251V13.7705H45.7524V20.3421Z" fill="#0101B1"/>
<path d="M45.7524 13.774H52.251V7.20235L45.7524 7.20235V13.774Z" fill="#0101B1"/>
<path d="M45.7524 33.5855H52.251V26.9034H45.7524V33.5855Z" fill="#0101B1"/>
<path d="M45.7524 26.9069H52.251V20.3352H45.7524V26.9069Z" fill="#0101B1"/>
<path d="M27.0072 27.2589H33.5059V20.6873H27.0072V27.2589Z" fill="#0101B1"/>
<path d="M26.9184 39.413H33.417V32.7309H26.9184V39.413Z" fill="#0101B1"/>
<path d="M65.3643 27.0036V33.5752H71.8629V27.0036H65.3643Z" fill="#0101B1"/>
<path d="M52.2646 27.0036V33.5752H58.8725V27.0036H52.2646Z" fill="#0101B1"/>
<path d="M58.873 27.0036V33.5752H65.3717V27.0036H58.873Z" fill="#0101B1"/>
<path d="M31.9502 7.57505V1.00342L25.4516 1.00342V7.57505H31.9502Z" fill="#0101B1"/>
<path d="M12.5015 46.9221H6.00293V53.4937H12.5015V46.9221Z" fill="#0101B1"/>
<path d="M12.5015 53.4902H6.00293V60.0619H12.5015V53.4902Z" fill="#0101B1"/>
<path d="M12.5015 60.0757H6.00293V66.6474H12.5015V60.0757Z" fill="#0101B1"/>
<path d="M12.5015 66.6611H6.00293V73.2328H12.5015V66.6611Z" fill="#0101B1"/>
<path d="M12.5015 73.2328H6.00293V79.8044H12.5015V73.2328Z" fill="#0101B1"/>
<path d="M70.9971 86.3761V79.8044H64.4985V86.3761H70.9971Z" fill="#0101B1"/>
<path d="M64.501 86.3761V79.8044H58.0024V86.3761H64.501Z" fill="#0101B1"/>
<path d="M58.0771 86.3761V79.8044H51.3737V86.3761H58.0771Z" fill="#0101B1"/>
<path d="M51.4561 86.3761V79.8044H44.9574V86.3761H51.4561Z" fill="#0101B1"/>
<path d="M44.96 86.3761V79.8044H38.4613V86.3761H44.96Z" fill="#0101B1"/>
<path d="M38.6328 86.3726V79.801H31.7758V86.3726H38.6328Z" fill="#0101B1"/>
<path d="M31.9395 86.3726V79.801H25.4408V86.3726H31.9395Z" fill="#0101B1"/>
<path d="M25.4375 86.3761V79.8044H18.9389V86.3761H25.4375Z" fill="#0101B1"/>
<path d="M18.9727 86.3726V79.801H12.474V86.3726H18.9727Z" fill="#0101B1"/>
<path d="M32.6152 67.5171V60.9454H26.1166V67.5171H32.6152Z" fill="#0101B1"/>
<path d="M58.624 67.5171V60.9454H52.1254V67.5171H58.624Z" fill="#0101B1"/>
<path d="M52.1348 60.942V54.3704H45.6362V60.942H52.1348Z" fill="#0101B1"/>
<path d="M45.6436 60.942V54.3704H39.1449V60.942H45.6436Z" fill="#0101B1"/>
<path d="M39.1621 60.9454V54.3738H32.6635V60.9454H39.1621Z" fill="#0101B1"/>
<path d="M12.499 86.3761V79.8044H6.00041V86.3761H12.499Z" fill="#0101B1"/>
<path d="M33.5029 27.0036V33.5752H40.0015V27.0036H33.5029Z" fill="#0101B1"/>
<path d="M20.4072 27.0036V33.5752H27.0151V27.0036H20.4072Z" fill="#0101B1"/>
<path d="M27.0117 27.0036V33.5752H33.5103V27.0036H27.0117Z" fill="#0101B1"/>
</g>
<path d="M1.42578 109.508V108.082H5.71289V109.508H1.42578ZM5.71289 108.082V106.656H7.13867V108.082H5.71289ZM0 108.082V100.943H1.42578V103.795H5.71289V100.943H7.13867V105.23H1.42578V108.082H0ZM1.42578 100.943V99.5076H5.71289V100.943H1.42578ZM10.4688 109.508V99.5076H11.8945V100.943H13.3203V102.369H11.8945V109.508H10.4688ZM13.3203 100.943V99.5076H14.7461V100.943H13.3203ZM17.3633 109.508V99.5076H18.7891V100.943H20.2148V102.369H18.7891V109.508H17.3633ZM20.2148 100.943V99.5076H21.6406V100.943H20.2148ZM25.6836 109.508V108.082H29.9707V109.508H25.6836ZM24.2578 108.082V100.943H25.6836V108.082H24.2578ZM29.9707 108.082V100.943H31.3965V108.082H29.9707ZM25.6836 100.943V99.5076H29.9707V100.943H25.6836ZM34.7266 109.508V99.5076H36.1523V100.943H37.5781V102.369H36.1523V109.508H34.7266ZM37.5781 100.943V99.5076H39.0039V100.943H37.5781ZM41.2695 109.508V108.082H42.6855V106.656H44.1211V108.082H49.834V109.508H41.2695ZM44.1211 106.656V105.23H45.5469V106.656H44.1211ZM45.5469 105.23V103.795H46.9727V105.23H45.5469ZM46.9727 103.795V100.943H48.3984V103.795H46.9727ZM41.2695 98.0818V96.656H42.6855V98.0818H41.2695ZM48.3984 100.943V96.656H49.834V100.943H48.3984ZM42.6855 96.656V95.2302H48.3984V96.656H42.6855ZM52.9883 109.508V108.082H54.4141V109.508H52.9883ZM57.7539 109.508V106.656H59.1797V108.082H64.8926V109.508H57.7539ZM59.1797 106.656V105.23H60.6055V106.656H59.1797ZM60.6055 105.23V103.795H62.0312V105.23H60.6055ZM62.0312 103.795V102.369H63.4668V103.795H62.0312ZM63.4668 102.369V100.943H57.7539V99.5076H64.8926V102.369H63.4668ZM68.2227 109.508V99.5076H69.6484V109.508H68.2227ZM68.2227 98.0818V96.656H69.6484V98.0818H68.2227ZM75.8398 109.508V108.082H78.7012V109.508H75.8398ZM72.9883 115.22V100.943H74.4141V106.656H75.8398V108.082H74.4141V115.22H72.9883ZM78.7012 108.082V100.943H80.127V108.082H78.7012ZM74.4141 100.943V99.5076H78.7012V100.943H74.4141Z" fill="white"/>
<defs>
<filter id="filter0_d_357_1074" x="5" y="0" width="89.4824" height="103.417" filterUnits="userSpaceOnUse" color-interpolation-filters="sRGB">
<feFlood flood-opacity="0" result="BackgroundImageFix"/>
<feColorMatrix in="SourceAlpha" type="matrix" values="0 0 0 0 0 0 0 0 0 0 0 0 0 0 0 0 0 0 127 0" result="hardAlpha"/>
<feOffset dx="8" dy="8"/>
<feGaussianBlur stdDeviation="4.5"/>
<feComposite in2="hardAlpha" operator="out"/>
<feColorMatrix type="matrix" values="0 0 0 0 0 0 0 0 0 0 0 0 0 0 0 0 0 0 0.25 0"/>
<feBlend mode="normal" in2="BackgroundImageFix" result="effect1_dropShadow_357_1074"/>
<feBlend mode="normal" in="SourceGraphic" in2="effect1_dropShadow_357_1074" result="shape"/>
</filter>
</defs>
</svg>
