<svg width="95" height="95" viewBox="0 0 95 95" fill="none" xmlns="http://www.w3.org/2000/svg">
<path d="M10.4638 94.7681V84.3043H20.9276V94.7681H10.4638ZM0 84.3043V73.8405H10.4638V84.3043H0ZM20.9276 84.3043V73.8405H31.3914V84.3043H20.9276ZM52.3907 86.9561V65.9568H62.8545V86.9561H52.3907ZM10.4638 73.8405V63.305H20.9276V73.8405H10.4638ZM41.9269 65.9568V55.493H52.3907V65.9568H41.9269ZM62.8545 65.9568V55.493H73.39V65.9568H62.8545ZM20.9276 55.493V44.9575H41.9269V55.493H20.9276ZM73.39 55.493V44.9575H94.3176V55.493H73.39ZM41.9269 44.9575V34.4937H52.3907V44.9575H41.9269ZM62.8545 44.9575V34.4937H73.39V44.9575H62.8545ZM20.9276 31.9136V21.3781H31.3914V31.9136H20.9276ZM52.3907 34.4937V13.5661H62.8545V34.4937H52.3907ZM10.4638 21.3781V10.9143H20.9276V21.3781H10.4638ZM31.3914 21.3781V10.9143H41.9269V21.3781H31.3914ZM20.9276 10.9143V0.450521H31.3914V10.9143H20.9276Z" fill="white"/>
</svg>
