<svg width="105" height="105" viewBox="0 0 105 105" fill="none" xmlns="http://www.w3.org/2000/svg">
<path d="M20.9276 105V94.5362H83.8538V105H20.9276ZM10.4638 94.5362V84.0724H20.9276V94.5362H10.4638ZM83.8538 94.5362V84.0724H94.3176V94.5362H83.8538ZM20.9276 73.6086V63.0731H31.3914V73.6086H20.9276ZM73.39 73.6086V63.0731H83.8538V73.6086H73.39ZM31.3914 63.0731V52.6093H73.39V63.0731H31.3914ZM31.3914 42.1455V31.61H41.9269V42.1455H31.3914ZM62.8545 42.1455V31.61H73.39V42.1455H62.8545ZM0 84.0724V21.1462H10.4638V84.0724H0ZM94.3176 84.0724V21.1462H104.781V84.0724H94.3176ZM10.4638 21.1462V10.6824H20.9276V21.1462H10.4638ZM83.8538 21.1462V10.6824H94.3176V21.1462H83.8538ZM20.9276 10.6824V0.218619H83.8538V10.6824H20.9276Z" fill="black"/>
</svg>
