<svg width="105" height="120" viewBox="0 0 105 120" fill="none" xmlns="http://www.w3.org/2000/svg">
<g filter="url(#filter0_d_314_1555)">
<path d="M20.6621 102.923V88.3026H27.9724V89.7627H22.1222V94.1529H26.5123V95.6129H22.1222V102.923H20.6621ZM31.3825 102.923V101.463H37.2328V102.923H31.3825ZM29.9225 101.463V89.7627H31.3825V101.463H29.9225ZM37.2328 101.463V89.7627H38.6928V101.463H37.2328ZM31.3825 89.7627V88.3026H37.2328V89.7627H31.3825ZM45.0231 102.923V89.7627H40.6429V88.3026H50.8733V89.7627H46.4831V102.923H45.0231ZM54.2834 102.923V101.463H60.1337V102.923H54.2834ZM52.8234 101.463V89.7627H54.2834V101.463H52.8234ZM60.1337 101.463V89.7627H61.5937V101.463H60.1337ZM54.2834 89.7627V88.3026H60.1337V89.7627H54.2834ZM66.0939 102.923V101.463H71.9441V102.923H66.0939ZM64.6438 101.463V100.003H66.0939V101.463H64.6438ZM71.9441 101.463V97.073H73.4142V101.463H71.9441ZM69.024 97.073V95.6129H71.9441V97.073H69.024ZM66.0939 95.6129V94.1529H69.024V95.6129H66.0939ZM64.6438 94.1529V89.7627H66.0939V94.1529H64.6438ZM71.9441 91.2228V89.7627H73.4142V91.2228H71.9441ZM66.0939 89.7627V88.3026H71.9441V89.7627H66.0939Z" fill="white"/>
<rect x="1" y="5.8923" width="4.89228" height="61.1535" fill="#D9D9D9"/>
<rect x="10.7852" y="25.4614" width="4.89228" height="41.5844" fill="#D9D9D9"/>
<rect x="82.9463" y="25.4614" width="4.89228" height="41.5844" fill="#D9D9D9"/>
<rect x="87.8379" y="20.5691" width="4.89228" height="72.1612" transform="rotate(90 87.8379 20.5691)" fill="#D9D9D9"/>
<rect x="78.0547" y="10.7846" width="4.89228" height="35.469" transform="rotate(90 78.0547 10.7846)" fill="#D9D9D9"/>
<rect x="37.6924" y="1" width="4.89228" height="31.7998" transform="rotate(90 37.6924 1)" fill="#D9D9D9"/>
<rect x="82.9463" y="15.6769" width="4.89228" height="4.89228" transform="rotate(90 82.9463 15.6769)" fill="#D9D9D9"/>
<rect x="42.584" y="5.8923" width="4.89228" height="4.89228" transform="rotate(90 42.584 5.8923)" fill="#D9D9D9"/>
<rect x="82.9463" y="67.0458" width="4.89228" height="77.0534" transform="rotate(90 82.9463 67.0458)" fill="#D9D9D9"/>
</g>
<defs>
<filter id="filter0_d_314_1555" x="0" y="0" width="104.839" height="119.923" filterUnits="userSpaceOnUse" color-interpolation-filters="sRGB">
<feFlood flood-opacity="0" result="BackgroundImageFix"/>
<feColorMatrix in="SourceAlpha" type="matrix" values="0 0 0 0 0 0 0 0 0 0 0 0 0 0 0 0 0 0 127 0" result="hardAlpha"/>
<feOffset dx="8" dy="8"/>
<feGaussianBlur stdDeviation="4.5"/>
<feComposite in2="hardAlpha" operator="out"/>
<feColorMatrix type="matrix" values="0 0 0 0 0 0 0 0 0 0 0 0 0 0 0 0 0 0 0.25 0"/>
<feBlend mode="normal" in2="BackgroundImageFix" result="effect1_dropShadow_314_1555"/>
<feBlend mode="normal" in="SourceGraphic" in2="effect1_dropShadow_314_1555" result="shape"/>
</filter>
</defs>
</svg>
