<svg width="353" height="159" viewBox="0 0 353 159" fill="none" xmlns="http://www.w3.org/2000/svg">
<path d="M116.344 124V115.193H142.827V124H116.344ZM142.827 115.193V106.385H151.634V115.193H142.827ZM107.537 115.193V71.096H116.344V115.193H107.537ZM142.827 79.9033V71.096H151.634V79.9033H142.827ZM116.344 71.096V62.2284H142.827V71.096H116.344ZM170.033 124V35.8066H178.84V124H170.033ZM199.471 124V62.2284H208.278V124H199.471ZM199.471 53.4212V44.6139H208.278V53.4212H199.471ZM237.716 124V115.193H264.198V124H237.716ZM264.198 115.193V106.385H273.005V115.193H264.198ZM228.909 115.193V71.096H237.716V115.193H228.909ZM264.198 79.9033V71.096H273.005V79.9033H264.198ZM237.716 71.096V62.2284H264.198V71.096H237.716ZM326.693 124V115.193H335.501V124H326.693ZM317.826 115.193V106.385H326.693V115.193H317.826ZM309.019 106.385V97.5782H317.826V106.385H309.019ZM309.019 88.7106V79.9033H317.826V88.7106H309.019ZM317.826 79.9033V71.096H326.693V79.9033H317.826ZM326.693 71.096V62.2284H335.501V71.096H326.693ZM291.404 124V35.8066H300.211V88.7106H309.019V97.5782H300.211V124H291.404Z" fill="white"/>
<path d="M24.5464 123.9L0 93.5098H49.0927L24.5464 123.9Z" fill="#D9D9D9"/>
</svg>
