<svg width="116" height="105" viewBox="0 0 116 105" fill="none" xmlns="http://www.w3.org/2000/svg">
<path d="M52.3907 105V94.5362H62.8545V105H52.3907ZM41.9269 94.5362V84.0724H52.3907V94.5362H41.9269ZM62.8545 94.5362V84.0724H73.39V94.5362H62.8545ZM31.3914 84.0724V73.6086H41.9269V84.0724H31.3914ZM73.39 84.0724V73.6086H83.8538V84.0724H73.39ZM20.9276 73.6086V63.0731H31.3914V73.6086H20.9276ZM83.8538 73.6086V63.0731H94.3176V73.6086H83.8538ZM10.4638 63.0731V52.6093H20.9276V63.0731H10.4638ZM94.3176 63.0731V52.6093H104.781V63.0731H94.3176ZM0 52.6093V21.1462H10.4638V52.6093H0ZM52.3907 31.61V21.1462H62.8545V31.61H52.3907ZM104.781 52.6093V21.1462H115.317V52.6093H104.781ZM10.4638 21.1462V10.6824H20.9276V21.1462H10.4638ZM41.9269 21.1462V10.6824H52.3907V21.1462H41.9269ZM62.8545 21.1462V10.6824H73.39V21.1462H62.8545ZM94.3176 21.1462V10.6824H104.781V21.1462H94.3176ZM20.9276 10.6824V0.218619H41.9269V10.6824H20.9276ZM73.39 10.6824V0.218619H94.3176V10.6824H73.39Z" fill="#0101B1"/>
</svg>
