<svg width="646" height="160" viewBox="0 0 646 160" fill="none" xmlns="http://www.w3.org/2000/svg">
<path d="M116.344 124V115.193H142.827V124H116.344ZM107.537 115.193V71.096H116.344V115.193H107.537ZM116.344 71.096V62.2284H133.959V71.096H116.344ZM142.827 115.193V79.9033H133.959V71.096H142.827V35.8066H151.634V115.193H142.827ZM172.204 124V62.2284H181.011V71.096H189.819V79.9033H181.011V124H172.204ZM189.819 71.096V62.2284H198.626V71.096H189.819ZM223.6 124V115.193H250.082V124H223.6ZM214.793 115.193V97.5782H223.6V115.193H214.793ZM214.793 79.9033V71.096H223.6V79.9033H214.793ZM250.082 115.193V97.5782H223.6V88.7106H250.082V71.096H258.889V115.193H250.082ZM223.6 71.096V62.2284H250.082V71.096H223.6ZM288.267 159.289V150.422H314.749V159.289H288.267ZM279.46 150.422V141.615H288.267V150.422H279.46ZM288.267 124V115.193H305.882V124H288.267ZM279.46 115.193V71.096H288.267V115.193H279.46ZM314.749 150.422V115.193H305.882V106.385H314.749V71.096H323.557V150.422H314.749ZM288.267 71.096V62.2284H314.749V71.096H288.267ZM344.127 124V71.096H352.934V124H344.127ZM379.416 124V71.096H388.224V124H379.416ZM352.934 71.096V62.2284H379.416V71.096H352.934ZM417.601 124V115.193H444.083V124H417.601ZM408.794 115.193V71.096H417.601V115.193H408.794ZM417.601 71.096V62.2284H435.216V71.096H417.601ZM444.083 115.193V79.9033H435.216V71.096H444.083V35.8066H452.891V115.193H444.083ZM473.461 124V62.2284H482.268V71.096H491.076V79.9033H482.268V124H473.461ZM491.076 71.096V62.2284H499.883V71.096H491.076ZM524.857 124V115.193H551.339V124H524.857ZM516.05 115.193V71.096H524.857V115.193H516.05ZM551.339 115.193V71.096H560.146V115.193H551.339ZM524.857 71.096V62.2284H551.339V71.096H524.857ZM598.331 124V115.193H616.006V124H598.331ZM580.717 159.289V71.096H589.524V106.385H598.331V115.193H589.524V159.289H580.717ZM616.006 115.193V71.096H624.814V115.193H616.006ZM589.524 71.096V62.2284H616.006V71.096H589.524Z" fill="white"/>
<path d="M24.5464 123.9L0 93.5098H49.0927L24.5464 123.9Z" fill="#D9D9D9"/>
</svg>
