<svg width="418" height="393" viewBox="0 0 418 393" fill="none" xmlns="http://www.w3.org/2000/svg">
<g filter="url(#filter0_d_390_453)">
<rect x="1.5" y="1.5" width="399" height="374" fill="white" stroke="#0101B1"/>
<rect x="1.5" y="1.5" width="399" height="47" fill="#0101B1" stroke="#0101B1"/>
<path d="M263.19 262.5V235.48H257.76V230H214.41V235.48H208.96V273.33H203.76V278.73H198.26V284.17H187.39V289.64H182.05V295.04H171.15V289.67H165.75V284.3H160.44V273.72H155V305.87H160.31V311.23H165.76V316.61H171.21V322.02H176.65V327.42H182.06V348.9H192.91V343.47H187.51V338.16H192.81V332.77H198.25V327.43H203.71V332.74H209.01V349.01H219.83V343.55H214.45V321.99H219.84V316.6H225.28V305.86H230.7V289.65H236.12V294.99H241.52V284.19H230.7V273.26H252.31V267.84H236.05V262.5H263.19ZM225.23 246.28H219.83V240.88H225.23V246.28Z" fill="black"/>
<path d="M317.19 262.5V235.48H311.76V230H268.41V235.48H262.96V273.33H257.76V278.73H252.26V284.17H241.39V289.64H236.05V295.04H225.15V289.67H219.75V284.3H214.44V273.72H209V305.87H214.31V311.23H219.76V316.61H225.21V322.02H230.65V327.42H236.06V348.9H246.91V343.47H241.51V338.16H246.81V332.77H252.25V327.43H257.71V332.74H263.01V349.01H273.83V343.55H268.45V321.99H273.84V316.6H279.28V305.86H284.7V289.65H290.12V294.99H295.52V284.19H284.7V273.26H306.31V267.84H290.05V262.5H317.19ZM279.23 246.28H273.83V240.88H279.23V246.28Z" fill="#6CEB1A"/>
<path d="M177.19 262.5V235.48H171.76V230H128.41V235.48H122.96V273.33H117.76V278.73H112.26V284.17H101.39V289.64H96.05V295.04H85.15V289.67H79.75V284.3H74.44V273.72H69V305.87H74.31V311.23H79.76V316.61H85.21V322.02H90.65V327.42H96.06V348.9H106.91V343.47H101.51V338.16H106.81V332.77H112.25V327.43H117.71V332.74H123.01V349.01H133.83V343.55H128.45V321.99H133.84V316.6H139.28V305.86H144.7V289.65H150.12V294.99H155.52V284.19H144.7V273.26H166.31V267.84H150.05V262.5H177.19ZM139.23 246.28H133.83V240.88H139.23V246.28Z" fill="black"/>
<path d="M48.8516 131V128.148H57.4258V131H48.8516ZM57.4258 128.148V125.297H60.2773V128.148H57.4258ZM46 128.148V113.871H48.8516V119.574H57.4258V113.871H60.2773V122.445H48.8516V128.148H46ZM48.8516 113.871V111H57.4258V113.871H48.8516ZM66.9375 131V111H69.7891V113.871H72.6406V116.723H69.7891V131H66.9375ZM72.6406 113.871V111H75.4922V113.871H72.6406ZM80.7266 131V111H83.5781V113.871H86.4297V116.723H83.5781V131H80.7266ZM86.4297 113.871V111H89.2812V113.871H86.4297ZM97.3672 131V128.148H105.941V131H97.3672ZM94.5156 128.148V113.871H97.3672V128.148H94.5156ZM105.941 128.148V113.871H108.793V128.148H105.941ZM97.3672 113.871V111H105.941V113.871H97.3672ZM115.453 131V111H118.305V113.871H121.156V116.723H118.305V131H115.453ZM121.156 113.871V111H124.008V113.871H121.156ZM149.594 131V116.723H135.336V102.445H138.168V113.871H149.594V102.445H152.445V131H149.594ZM164.828 131V128.148H173.402V131H164.828ZM161.977 128.148V125.297H164.828V128.148H161.977ZM173.402 128.148V125.297H176.254V128.148H173.402ZM159.125 125.297V108.148H161.977V125.297H159.125ZM176.254 125.297V108.148H179.125V125.297H176.254ZM161.977 108.148V105.297H164.828V108.148H161.977ZM173.402 108.148V105.297H176.254V108.148H173.402ZM164.828 105.297V102.445H173.402V105.297H164.828ZM198.969 131V116.723H184.711V102.445H187.543V113.871H198.969V102.445H201.82V131H198.969Z" fill="black"/>
<path d="M140.782 159V157.218H146.141V159H140.782ZM146.141 157.218V155.436H147.923V157.218H146.141ZM139 157.218V148.294H140.782V151.859H146.141V148.294H147.923V153.653H140.782V157.218H139ZM140.782 148.294V146.5H146.141V148.294H140.782ZM152.086 159V146.5H153.868V148.294H155.65V150.077H153.868V159H152.086ZM155.65 148.294V146.5H157.433V148.294H155.65ZM160.704 159V146.5H162.486V148.294H164.269V150.077H162.486V159H160.704ZM164.269 148.294V146.5H166.051V148.294H164.269ZM171.104 159V157.218H176.463V159H171.104ZM169.322 157.218V148.294H171.104V157.218H169.322ZM176.463 157.218V148.294H178.246V157.218H176.463ZM171.104 148.294V146.5H176.463V148.294H171.104ZM182.408 159V146.5H184.19V148.294H185.973V150.077H184.19V159H182.408ZM185.973 148.294V146.5H187.755V148.294H185.973ZM203.746 159V150.077H194.835V141.153H196.605V148.294H203.746V141.153H205.528V159H203.746ZM213.268 159V157.218H218.626V159H213.268ZM211.485 157.218V155.436H213.268V157.218H211.485ZM218.626 157.218V155.436H220.409V157.218H218.626ZM209.703 155.436V144.718H211.485V155.436H209.703ZM220.409 155.436V144.718H222.203V155.436H220.409ZM211.485 144.718V142.936H213.268V144.718H211.485ZM218.626 144.718V142.936H220.409V144.718H218.626ZM213.268 142.936V141.153H218.626V142.936H213.268ZM234.605 159V150.077H225.694V141.153H227.464V148.294H234.605V141.153H236.388V159H234.605Z" fill="black"/>
</g>
<defs>
<filter id="filter0_d_390_453" x="0" y="0" width="418" height="393" filterUnits="userSpaceOnUse" color-interpolation-filters="sRGB">
<feFlood flood-opacity="0" result="BackgroundImageFix"/>
<feColorMatrix in="SourceAlpha" type="matrix" values="0 0 0 0 0 0 0 0 0 0 0 0 0 0 0 0 0 0 127 0" result="hardAlpha"/>
<feOffset dx="8" dy="8"/>
<feGaussianBlur stdDeviation="4.5"/>
<feComposite in2="hardAlpha" operator="out"/>
<feColorMatrix type="matrix" values="0 0 0 0 0 0 0 0 0 0 0 0 0 0 0 0 0 0 0.25 0"/>
<feBlend mode="normal" in2="BackgroundImageFix" result="effect1_dropShadow_390_453"/>
<feBlend mode="normal" in="SourceGraphic" in2="effect1_dropShadow_390_453" result="shape"/>
</filter>
</defs>
</svg>
