<svg width="418" height="393" viewBox="0 0 418 393" fill="none" xmlns="http://www.w3.org/2000/svg">
<g filter="url(#filter0_d_194_500)">
<rect x="1.5" y="1.5" width="399" height="374" fill="white" stroke="#0101B1"/>
<rect x="1.5" y="1.5" width="399" height="47" fill="#D9D9D9" stroke="#0101B1"/>
<path d="M61.2773 137V134.148H67V137H61.2773ZM58.4258 134.148V119.871H55.5742V117H58.4258V108.445H61.2773V117H67V119.871H61.2773V134.148H58.4258ZM75.0859 137V134.148H83.6602V137H75.0859ZM72.2344 134.148V119.871H75.0859V134.148H72.2344ZM83.6602 134.148V119.871H86.5117V134.148H83.6602ZM75.0859 119.871V117H83.6602V119.871H75.0859ZM96.0234 137V134.148H104.598V137H96.0234ZM93.1719 134.148V119.871H96.0234V134.148H93.1719ZM104.598 134.148V119.871H107.449V134.148H104.598ZM96.0234 119.871V117H104.598V119.871H96.0234ZM121.258 137V119.871H124.109V137H121.258ZM132.684 137V119.871H135.535V137H132.684ZM144.109 137V119.871H146.961V137H144.109ZM124.109 119.871V117H132.684V119.871H124.109ZM135.535 119.871V117H144.109V119.871H135.535ZM156.492 137V134.148H165.066V137H156.492ZM153.641 134.148V128.445H156.492V134.148H153.641ZM153.641 122.723V119.871H156.492V122.723H153.641ZM165.066 134.148V128.445H156.492V125.574H165.066V119.871H167.918V134.148H165.066ZM156.492 119.871V117H165.066V119.871H156.492ZM174.578 137V119.871H177.43V137H174.578ZM186.004 137V119.871H188.855V137H186.004ZM177.43 119.871V117H186.004V119.871H177.43ZM194.812 148.426V145.555H197.645V148.426H194.812ZM197.645 145.555V139.852H200.516V145.555H197.645ZM200.516 139.852V134.148H203.367V139.852H200.516ZM197.645 134.148V128.445H200.516V134.148H197.645ZM203.367 134.148V128.445H206.219V134.148H203.367ZM194.812 128.445V117H197.645V128.445H194.812ZM206.219 128.445V117H209.07V128.445H206.219ZM224.656 137V134.148H233.23V137H224.656ZM233.23 134.148V131.297H236.082V134.148H233.23ZM221.805 134.148V119.871H224.656V125.574H233.23V119.871H236.082V128.445H224.656V134.148H221.805ZM224.656 119.871V117H233.23V119.871H224.656ZM242.742 137V117H245.594V119.871H248.445V122.723H245.594V137H242.742ZM248.445 119.871V117H251.297V119.871H248.445ZM256.531 137V117H259.383V119.871H262.234V122.723H259.383V137H256.531ZM262.234 119.871V117H265.086V119.871H262.234ZM273.172 137V134.148H281.746V137H273.172ZM270.32 134.148V119.871H273.172V134.148H270.32ZM281.746 134.148V119.871H284.598V134.148H281.746ZM273.172 119.871V117H281.746V119.871H273.172ZM291.258 137V117H294.109V119.871H296.961V122.723H294.109V137H291.258ZM296.961 119.871V117H299.812V119.871H296.961ZM307.898 137V134.148H316.473V137H307.898ZM305.047 134.148V131.297H307.898V134.148H305.047ZM316.473 134.148V128.445H319.324V134.148H316.473ZM307.898 128.445V125.574H316.473V128.445H307.898ZM305.047 125.574V119.871H307.898V125.574H305.047ZM316.473 122.723V119.871H319.324V122.723H316.473ZM307.898 119.871V117H316.473V119.871H307.898ZM325.984 137V134.148H328.836V137H325.984ZM68.4258 173.723V162.297H71.2773V173.723H68.4258ZM57 188V159.445H68.4258V162.297H59.8516V173.723H68.4258V176.574H59.8516V188H57ZM76.5312 188V159.445H79.3828V188H76.5312ZM88.9141 188V185.148H97.4883V188H88.9141ZM97.4883 185.148V182.297H100.34V185.148H97.4883ZM86.0625 185.148V170.871H88.9141V176.574H97.4883V170.871H100.34V179.445H88.9141V185.148H86.0625ZM88.9141 170.871V168H97.4883V170.871H88.9141ZM109.852 188V185.148H118.426V188H109.852ZM107 185.148V179.445H109.852V185.148H107ZM107 173.723V170.871H109.852V173.723H107ZM118.426 185.148V179.445H109.852V176.574H118.426V170.871H121.277V185.148H118.426ZM109.852 170.871V168H118.426V170.871H109.852ZM130.789 188V185.148H139.363V188H130.789ZM127.938 185.148V182.297H130.789V185.148H127.938ZM139.363 185.148V179.445H142.215V185.148H139.363ZM130.789 179.445V176.574H139.363V179.445H130.789ZM127.938 176.574V170.871H130.789V176.574H127.938ZM139.363 173.723V170.871H142.215V173.723H139.363ZM130.789 170.871V168H139.363V170.871H130.789ZM151.727 188V185.148H160.301V188H151.727ZM160.301 185.148V182.297H163.152V185.148H160.301ZM148.875 185.148V170.871H151.727V176.574H160.301V170.871H163.152V179.445H151.727V185.148H148.875ZM151.727 170.871V168H160.301V170.871H151.727ZM179.812 188V185.148H188.387V188H179.812ZM188.387 185.148V182.297H191.238V185.148H188.387ZM176.961 185.148V170.871H179.812V185.148H176.961ZM188.387 173.723V170.871H191.238V173.723H188.387ZM179.812 170.871V168H188.387V170.871H179.812ZM197.195 188V159.445H200.047V188H197.195ZM209.578 188V185.148H218.152V188H209.578ZM206.727 185.148V170.871H209.578V185.148H206.727ZM218.152 185.148V170.871H221.004V185.148H218.152ZM209.578 170.871V168H218.152V170.871H209.578ZM230.516 188V185.148H239.09V188H230.516ZM227.664 185.148V182.297H230.516V185.148H227.664ZM239.09 185.148V179.445H241.941V185.148H239.09ZM230.516 179.445V176.574H239.09V179.445H230.516ZM227.664 176.574V170.871H230.516V176.574H227.664ZM239.09 173.723V170.871H241.941V173.723H239.09ZM230.516 170.871V168H239.09V170.871H230.516ZM251.453 188V185.148H260.027V188H251.453ZM260.027 185.148V182.297H262.879V185.148H260.027ZM248.602 185.148V170.871H251.453V176.574H260.027V170.871H262.879V179.445H251.453V185.148H248.602ZM251.453 170.871V168H260.027V170.871H251.453ZM59.8516 239V236.148H68.4258V239H59.8516ZM57 236.148V233.297H59.8516V236.148H57ZM68.4258 236.148V230.445H71.2773V236.148H68.4258ZM59.8516 230.445V227.574H68.4258V230.445H59.8516ZM57 227.574V221.871H59.8516V227.574H57ZM68.4258 224.723V221.871H71.2773V224.723H68.4258ZM59.8516 221.871V219H68.4258V221.871H59.8516ZM80.7891 239V236.148H89.3633V239H80.7891ZM77.9375 236.148V221.871H80.7891V236.148H77.9375ZM89.3633 236.148V221.871H92.2148V236.148H89.3633ZM80.7891 221.871V219H89.3633V221.871H80.7891ZM98.875 239V221.871H101.727V239H98.875ZM110.301 239V221.871H113.152V239H110.301ZM121.727 239V221.871H124.578V239H121.727ZM101.727 221.871V219H110.301V221.871H101.727ZM113.152 221.871V219H121.727V221.871H113.152ZM134.109 239V236.148H142.684V239H134.109ZM142.684 236.148V233.297H145.535V236.148H142.684ZM131.258 236.148V221.871H134.109V227.574H142.684V221.871H145.535V230.445H134.109V236.148H131.258ZM134.109 221.871V219H142.684V221.871H134.109ZM162.195 239V236.148H170.77V239H162.195ZM170.77 236.148V233.297H173.621V236.148H170.77ZM159.344 236.148V221.871H162.195V227.574H170.77V221.871H173.621V230.445H162.195V236.148H159.344ZM162.195 221.871V219H170.77V221.871H162.195ZM180.281 239V219H183.133V221.871H185.984V224.723H183.133V239H180.281ZM185.984 221.871V219H188.836V221.871H185.984ZM194.07 239V219H196.922V221.871H199.773V224.723H196.922V239H194.07ZM199.773 221.871V219H202.625V221.871H199.773ZM210.711 239V236.148H219.285V239H210.711ZM207.859 236.148V221.871H210.711V236.148H207.859ZM219.285 236.148V221.871H222.137V236.148H219.285ZM210.711 221.871V219H219.285V221.871H210.711ZM228.797 239V219H231.648V221.871H234.5V224.723H231.648V239H228.797ZM234.5 221.871V219H237.352V221.871H234.5ZM57 290V272.871H59.8516V290H57ZM68.4258 290V272.871H71.2773V290H68.4258ZM79.8516 290V272.871H82.7031V290H79.8516ZM59.8516 272.871V270H68.4258V272.871H59.8516ZM71.2773 272.871V270H79.8516V272.871H71.2773ZM92.2344 290V287.148H100.809V290H92.2344ZM100.809 287.148V284.297H103.66V287.148H100.809ZM89.3828 287.148V272.871H92.2344V278.574H100.809V272.871H103.66V281.445H92.2344V287.148H89.3828ZM92.2344 272.871V270H100.809V272.871H92.2344ZM113.172 290V287.148H121.746V290H113.172ZM110.32 287.148V284.297H113.172V287.148H110.32ZM121.746 287.148V281.445H124.598V287.148H121.746ZM113.172 281.445V278.574H121.746V281.445H113.172ZM110.32 278.574V272.871H113.172V278.574H110.32ZM121.746 275.723V272.871H124.598V275.723H121.746ZM113.172 272.871V270H121.746V272.871H113.172ZM134.109 290V287.148H142.684V290H134.109ZM131.258 287.148V284.297H134.109V287.148H131.258ZM142.684 287.148V281.445H145.535V287.148H142.684ZM134.109 281.445V278.574H142.684V281.445H134.109ZM131.258 278.574V272.871H134.109V278.574H131.258ZM142.684 275.723V272.871H145.535V275.723H142.684ZM134.109 272.871V270H142.684V272.871H134.109ZM155.047 290V287.148H163.621V290H155.047ZM152.195 287.148V281.445H155.047V287.148H152.195ZM152.195 275.723V272.871H155.047V275.723H152.195ZM163.621 287.148V281.445H155.047V278.574H163.621V272.871H166.473V287.148H163.621ZM155.047 272.871V270H163.621V272.871H155.047ZM175.984 301.426V298.555H184.559V301.426H175.984ZM173.133 298.555V295.703H175.984V298.555H173.133ZM175.984 290V287.148H181.688V290H175.984ZM173.133 287.148V272.871H175.984V287.148H173.133ZM184.559 298.555V287.148H181.688V284.297H184.559V272.871H187.41V298.555H184.559ZM175.984 272.871V270H184.559V272.871H175.984ZM196.922 290V287.148H205.496V290H196.922ZM205.496 287.148V284.297H208.348V287.148H205.496ZM194.07 287.148V272.871H196.922V278.574H205.496V272.871H208.348V281.445H196.922V287.148H194.07ZM196.922 272.871V270H205.496V272.871H196.922ZM225.008 290V287.148H233.582V290H225.008ZM233.582 287.148V272.871H236.434V287.148H233.582ZM227.859 272.871V270H233.582V272.871H227.859ZM222.156 287.148V261.445H225.008V272.871H227.859V275.723H225.008V287.148H222.156ZM245.945 290V287.148H254.52V290H245.945ZM243.094 287.148V272.871H245.945V287.148H243.094ZM254.52 287.148V272.871H257.371V287.148H254.52ZM245.945 272.871V270H254.52V272.871H245.945ZM264.031 290V284.297H266.883V290H264.031ZM275.457 290V284.297H278.309V290H275.457ZM266.883 284.297V281.445H269.734V284.297H266.883ZM272.586 284.297V281.445H275.457V284.297H272.586ZM269.734 281.445V278.574H272.586V281.445H269.734ZM266.883 278.574V275.723H269.734V278.574H266.883ZM272.586 278.574V275.723H275.457V278.574H272.586ZM264.031 275.723V270H266.883V275.723H264.031ZM275.457 275.723V270H278.309V275.723H275.457ZM287.82 290V287.148H296.395V290H287.82ZM296.395 287.148V284.297H299.246V287.148H296.395ZM284.969 287.148V272.871H287.82V278.574H296.395V272.871H299.246V281.445H287.82V287.148H284.969ZM287.82 272.871V270H296.395V272.871H287.82ZM308.758 290V287.148H317.332V290H308.758ZM305.906 287.148V284.297H308.758V287.148H305.906ZM317.332 287.148V281.445H320.184V287.148H317.332ZM308.758 281.445V278.574H317.332V281.445H308.758ZM305.906 278.574V272.871H308.758V278.574H305.906ZM317.332 275.723V272.871H320.184V275.723H317.332ZM308.758 272.871V270H317.332V272.871H308.758Z" fill="black"/>
</g>
<defs>
<filter id="filter0_d_194_500" x="0" y="0" width="418" height="393" filterUnits="userSpaceOnUse" color-interpolation-filters="sRGB">
<feFlood flood-opacity="0" result="BackgroundImageFix"/>
<feColorMatrix in="SourceAlpha" type="matrix" values="0 0 0 0 0 0 0 0 0 0 0 0 0 0 0 0 0 0 127 0" result="hardAlpha"/>
<feOffset dx="8" dy="8"/>
<feGaussianBlur stdDeviation="4.5"/>
<feComposite in2="hardAlpha" operator="out"/>
<feColorMatrix type="matrix" values="0 0 0 0 0 0 0 0 0 0 0 0 0 0 0 0 0 0 0.25 0"/>
<feBlend mode="normal" in2="BackgroundImageFix" result="effect1_dropShadow_194_500"/>
<feBlend mode="normal" in="SourceGraphic" in2="effect1_dropShadow_194_500" result="shape"/>
</filter>
</defs>
</svg>
