<svg width="418" height="205" viewBox="0 0 418 205" fill="none" xmlns="http://www.w3.org/2000/svg">
<g filter="url(#filter0_d_194_513)">
<rect x="1.5" y="1.5" width="399" height="186" fill="white" stroke="#0101B1"/>
<rect x="1.5" y="1.5" width="399" height="47" fill="#0101B1" stroke="#0101B1"/>
<path d="M57 124V98.2969H59.8516V104H65.5547V106.871H59.8516V124H57ZM59.8516 98.2969V95.4453H65.5547V98.2969H59.8516ZM73.6406 124V121.148H82.2148V124H73.6406ZM70.7891 121.148V115.445H73.6406V121.148H70.7891ZM70.7891 109.723V106.871H73.6406V109.723H70.7891ZM82.2148 121.148V115.445H73.6406V112.574H82.2148V106.871H85.0664V121.148H82.2148ZM73.6406 106.871V104H82.2148V106.871H73.6406ZM91.7266 124V104H94.5781V124H91.7266ZM91.7266 101.148V98.2969H94.5781V101.148H91.7266ZM101.258 124V95.4453H104.109V124H101.258Z" fill="black"/>
</g>
<defs>
<filter id="filter0_d_194_513" x="0" y="0" width="418" height="205" filterUnits="userSpaceOnUse" color-interpolation-filters="sRGB">
<feFlood flood-opacity="0" result="BackgroundImageFix"/>
<feColorMatrix in="SourceAlpha" type="matrix" values="0 0 0 0 0 0 0 0 0 0 0 0 0 0 0 0 0 0 127 0" result="hardAlpha"/>
<feOffset dx="8" dy="8"/>
<feGaussianBlur stdDeviation="4.5"/>
<feComposite in2="hardAlpha" operator="out"/>
<feColorMatrix type="matrix" values="0 0 0 0 0 0 0 0 0 0 0 0 0 0 0 0 0 0 0.25 0"/>
<feBlend mode="normal" in2="BackgroundImageFix" result="effect1_dropShadow_194_513"/>
<feBlend mode="normal" in="SourceGraphic" in2="effect1_dropShadow_194_513" result="shape"/>
</filter>
</defs>
</svg>
