<svg width="410" height="159" viewBox="0 0 410 159" fill="none" xmlns="http://www.w3.org/2000/svg">
<path d="M142.827 124V71.096H151.634V124H142.827ZM125.152 71.096V62.2284H142.827V71.096H125.152ZM107.537 124V35.8066H116.344V71.096H125.152V79.9033H116.344V124H107.537ZM181.011 124V115.193H207.494V124H181.011ZM172.204 115.193V71.096H181.011V115.193H172.204ZM207.494 115.193V71.096H216.301V115.193H207.494ZM181.011 71.096V62.2284H207.494V71.096H181.011ZM254.486 124V115.193H263.293V124H254.486ZM245.679 115.193V97.5782H254.486V115.193H245.679ZM263.293 115.193V97.5782H272.161V115.193H263.293ZM236.871 97.5782V62.2284H245.679V97.5782H236.871ZM272.161 97.5782V62.2284H280.968V97.5782H272.161ZM310.346 124V115.193H336.828V124H310.346ZM336.828 115.193V106.385H345.635V115.193H336.828ZM301.538 115.193V71.096H310.346V88.7106H336.828V71.096H345.635V97.5782H310.346V115.193H301.538ZM310.346 71.096V62.2284H336.828V71.096H310.346ZM366.205 124V62.2284H375.013V71.096H383.82V79.9033H375.013V124H366.205ZM383.82 71.096V62.2284H392.627V71.096H383.82Z" fill="white"/>
<path d="M24.5464 123.9L0 93.5098H49.0927L24.5464 123.9Z" fill="#D9D9D9"/>
</svg>
