<svg width="611" height="288" viewBox="0 0 611 288" fill="none" xmlns="http://www.w3.org/2000/svg">
<rect x="0.691126" y="0.691126" width="609.573" height="286.126" fill="#C7F2FF" stroke="black" stroke-width="1.38225"/>
<path d="M142.891 81.5052H132.574V92.0546H129.92V68.8991H132.574V79.183H142.891V68.8991H145.545V92.0546H142.891V81.5052ZM151.043 92.0546V68.8991H163.848V71.2213H153.697V79.183H163.218V81.5052H153.697V89.7324H163.848V92.0546H151.043ZM175.535 92.0546V68.8991H178.189V89.7324H186.98V92.0546H175.535ZM190.567 92.0546V68.8991H203.372V71.2213H193.221V79.183H202.742V81.5052H193.221V89.7324H203.372V92.0546H190.567ZM207.033 92.0546V89.8651H209.953V71.0886H207.033V68.8991H215.526V71.0886H212.607V89.8651H215.526V92.0546H207.033ZM211.545 67.0081L209.919 66.1788L212.474 60.5724L214.763 61.7666L211.545 67.0081ZM220.048 68.8991H227.313C229.989 68.8991 232.057 69.8279 233.516 71.6857C234.976 73.5213 235.706 76.4517 235.706 80.4768C235.706 84.5019 234.976 87.4434 233.516 89.3011C232.057 91.1367 229.989 92.0546 227.313 92.0546H220.048V68.8991ZM227.313 89.7324C228.971 89.7324 230.309 89.1574 231.327 88.0073C232.344 86.8573 232.853 85.2097 232.853 83.0644V77.8892C232.853 75.744 232.344 74.0963 231.327 72.9463C230.309 71.7963 228.971 71.2213 227.313 71.2213H222.702V89.7324H227.313ZM248.027 92.4527C245.219 92.4527 243.04 91.4906 241.492 89.5665C239.944 87.6424 239.17 84.6125 239.17 80.4768C239.17 76.3411 239.944 73.3112 241.492 71.3871C243.04 69.463 245.219 68.501 248.027 68.501C250.836 68.501 253.015 69.463 254.563 71.3871C256.111 73.3112 256.885 76.3411 256.885 80.4768C256.885 84.6125 256.111 87.6424 254.563 89.5665C253.015 91.4906 250.836 92.4527 248.027 92.4527ZM248.027 90.0973C249.951 90.0973 251.433 89.467 252.473 88.2064C253.512 86.9236 254.032 85.2097 254.032 83.0644V77.8892C254.032 75.744 253.512 74.041 252.473 72.7804C251.433 71.4977 249.951 70.8563 248.027 70.8563C246.103 70.8563 244.621 71.4977 243.582 72.7804C242.543 74.041 242.023 75.744 242.023 77.8892V83.0644C242.023 85.2097 242.543 86.9236 243.582 88.2064C244.621 89.467 246.103 90.0973 248.027 90.0973ZM273.16 92.0546V82.8985L265.995 68.8991H269.014L274.355 79.9129H274.686L280.027 68.8991H282.98L275.814 82.8985V92.0546H273.16ZM306.172 92.0546L304.115 85.1212H295.788L293.731 92.0546H291.077L298.309 68.8991H301.627L308.892 92.0546H306.172ZM300.831 74.1406L300.101 71.2544H299.769L299.039 74.1406L296.418 82.9317H303.518L300.831 74.1406ZM319.224 92.4527C317.919 92.4527 316.747 92.2204 315.708 91.756C314.668 91.2694 313.784 90.5396 313.054 89.5665C312.346 88.5934 311.793 87.3549 311.395 85.851C311.019 84.325 310.831 82.5336 310.831 80.4768C310.831 78.42 311.019 76.6397 311.395 75.1358C311.793 73.6098 312.346 72.3602 313.054 71.3871C313.784 70.414 314.668 69.6952 315.708 69.2308C316.747 68.7443 317.919 68.501 319.224 68.501C321.126 68.501 322.652 68.9101 323.802 69.7284C324.952 70.5246 325.859 71.752 326.522 73.4107L324.399 74.7045C323.979 73.4439 323.371 72.4929 322.575 71.8516C321.801 71.1881 320.684 70.8563 319.224 70.8563C317.455 70.8563 316.084 71.4977 315.11 72.7804C314.16 74.041 313.684 75.744 313.684 77.8892V83.0644C313.684 85.2097 314.16 86.9236 315.11 88.2064C316.084 89.467 317.455 90.0973 319.224 90.0973C320.728 90.0973 321.889 89.7545 322.707 89.0689C323.526 88.3612 324.145 87.3438 324.565 86.0169L326.688 87.3438C326.025 89.0026 325.085 90.2742 323.868 91.1589C322.674 92.0214 321.126 92.4527 319.224 92.4527ZM330.455 92.0546V68.8991H343.26V71.2213H333.109V79.183H342.63V81.5052H333.109V89.7324H343.26V92.0546H330.455ZM347.917 92.0546V68.8991H356.443C360.269 68.8991 362.182 71.0996 362.182 75.5007C362.182 79.9018 360.269 82.1023 356.443 82.1023H350.571V92.0546H347.917ZM350.571 79.7802H356.376C358.344 79.7802 359.329 78.7186 359.329 76.5955V74.406C359.329 72.2828 358.344 71.2213 356.376 71.2213H350.571V79.7802ZM373.224 71.2213V92.0546H370.57V71.2213H364.034V68.8991H379.759V71.2213H373.224ZM390.378 92.4527C387.569 92.4527 385.391 91.4906 383.842 89.5665C382.294 87.6424 381.52 84.6125 381.52 80.4768C381.52 76.3411 382.294 73.3112 383.842 71.3871C385.391 69.463 387.569 68.501 390.378 68.501C393.187 68.501 395.365 69.463 396.913 71.3871C398.461 73.3112 399.235 76.3411 399.235 80.4768C399.235 84.6125 398.461 87.6424 396.913 89.5665C395.365 91.4906 393.187 92.4527 390.378 92.4527ZM390.378 90.0973C392.302 90.0973 393.784 89.467 394.823 88.2064C395.863 86.9236 396.382 85.2097 396.382 83.0644V77.8892C396.382 75.744 395.863 74.041 394.823 72.7804C393.784 71.4977 392.302 70.8563 390.378 70.8563C388.454 70.8563 386.972 71.4977 385.932 72.7804C384.893 74.041 384.373 75.744 384.373 77.8892V83.0644C384.373 85.2097 384.893 86.9236 385.932 88.2064C386.972 89.467 388.454 90.0973 390.378 90.0973ZM410.734 92.0546V68.8991H413.388V89.7324H422.179V92.0546H410.734ZM432.59 92.4527C429.782 92.4527 427.603 91.4906 426.055 89.5665C424.507 87.6424 423.733 84.6125 423.733 80.4768C423.733 76.3411 424.507 73.3112 426.055 71.3871C427.603 69.463 429.782 68.501 432.59 68.501C435.399 68.501 437.578 69.463 439.126 71.3871C440.674 73.3112 441.448 76.3411 441.448 80.4768C441.448 84.6125 440.674 87.6424 439.126 89.5665C437.578 91.4906 435.399 92.4527 432.59 92.4527ZM432.59 90.0973C434.515 90.0973 435.996 89.467 437.036 88.2064C438.075 86.9236 438.595 85.2097 438.595 83.0644V77.8892C438.595 75.744 438.075 74.041 437.036 72.7804C435.996 71.4977 434.515 70.8563 432.59 70.8563C430.666 70.8563 429.185 71.4977 428.145 72.7804C427.106 74.041 426.586 75.744 426.586 77.8892V83.0644C426.586 85.2097 427.106 86.9236 428.145 88.2064C429.185 89.467 430.666 90.0973 432.59 90.0973ZM451.854 92.4527C450.195 92.4527 448.746 92.1099 447.508 91.4243C446.269 90.7165 445.241 89.7434 444.423 88.5049L446.347 86.9126C447.055 87.952 447.851 88.7593 448.735 89.3343C449.62 89.8872 450.659 90.1636 451.854 90.1636C454.994 90.1636 456.564 88.6929 456.564 85.7515C456.564 84.5572 456.277 83.6505 455.702 83.0312C455.127 82.412 454.132 81.9254 452.716 81.5716L450.991 81.1403C448.957 80.6316 447.453 79.8907 446.48 78.9176C445.529 77.9224 445.053 76.5291 445.053 74.7377C445.053 72.6809 445.694 71.1328 446.977 70.0933C448.26 69.0318 449.963 68.501 452.086 68.501C453.7 68.501 455.049 68.7995 456.133 69.3967C457.239 69.9938 458.201 70.9337 459.019 72.2165L457.062 73.6098C456.465 72.6809 455.779 71.9843 455.005 71.5198C454.253 71.0333 453.247 70.79 451.986 70.79C450.571 70.79 449.487 71.0996 448.735 71.7189C448.006 72.3381 447.641 73.3444 447.641 74.7377C447.641 75.8656 447.939 76.7171 448.536 77.2921C449.156 77.8671 450.14 78.3205 451.489 78.6522L453.214 79.0835C454.298 79.3489 455.215 79.6696 455.967 80.0456C456.719 80.3994 457.327 80.8417 457.792 81.3725C458.278 81.9033 458.621 82.5336 458.82 83.2634C459.041 83.9712 459.152 84.8005 459.152 85.7515C459.152 87.941 458.5 89.6107 457.195 90.7608C455.912 91.8887 454.132 92.4527 451.854 92.4527ZM137.053 114.221V135.055H134.399V114.221H127.864V111.899H143.588V114.221H137.053ZM147.026 135.055V111.899H159.831V114.221H149.68V122.183H159.201V124.505H149.68V132.732H159.831V135.055H147.026ZM153.594 110.008L151.969 109.179L154.523 103.572L156.812 104.767L153.594 110.008ZM167.141 135.055H164.488V111.899H173.013C176.839 111.899 178.752 114.1 178.752 118.501C178.752 122.216 177.381 124.361 174.639 124.936L179.316 135.055H176.331L171.985 125.102H167.141V135.055ZM172.947 122.847C174.915 122.847 175.899 121.785 175.899 119.662V117.406C175.899 115.283 174.915 114.221 172.947 114.221H167.141V122.847H172.947ZM199.822 119.164L200.054 115.183H199.723L197.997 119.164L193.021 129.382L188.045 119.164L186.32 115.25H185.988L186.221 119.164V135.055H183.633V111.899H187.15L191.33 120.889L192.889 125.169H193.154L194.713 120.889L198.893 111.899H202.41V135.055H199.822V119.164ZM206.904 135.055V132.865H209.823V114.089H206.904V111.899H215.396V114.089H212.477V132.865H215.396V135.055H206.904ZM224.629 120.027L222.605 115.25H222.273L222.506 120.027V135.055H219.918V111.899H223.169L230.865 126.927L232.889 131.704H233.221L232.989 126.927V111.899H235.576V135.055H232.325L224.629 120.027ZM248.87 135.453C246.061 135.453 243.882 134.491 242.334 132.567C240.786 130.642 240.012 127.613 240.012 123.477C240.012 119.341 240.786 116.311 242.334 114.387C243.882 112.463 246.061 111.501 248.87 111.501C251.678 111.501 253.857 112.463 255.405 114.387C256.953 116.311 257.727 119.341 257.727 123.477C257.727 127.613 256.953 130.642 255.405 132.567C253.857 134.491 251.678 135.453 248.87 135.453ZM248.87 133.097C250.794 133.097 252.276 132.467 253.315 131.206C254.354 129.924 254.874 128.21 254.874 126.064V120.889C254.874 118.744 254.354 117.041 253.315 115.78C252.276 114.498 250.794 113.856 248.87 113.856C246.946 113.856 245.464 114.498 244.424 115.78C243.385 117.041 242.865 118.744 242.865 120.889V126.064C242.865 128.21 243.385 129.924 244.424 131.206C245.464 132.467 246.946 133.097 248.87 133.097ZM268.133 135.453C266.474 135.453 265.026 135.11 263.787 134.424C262.549 133.717 261.52 132.743 260.702 131.505L262.626 129.913C263.334 130.952 264.13 131.759 265.015 132.334C265.899 132.887 266.939 133.164 268.133 133.164C271.273 133.164 272.844 131.693 272.844 128.751C272.844 127.557 272.556 126.65 271.981 126.031C271.406 125.412 270.411 124.925 268.995 124.572L267.27 124.14C265.236 123.632 263.732 122.891 262.759 121.918C261.808 120.922 261.332 119.529 261.332 117.738C261.332 115.681 261.974 114.133 263.256 113.093C264.539 112.032 266.242 111.501 268.365 111.501C269.98 111.501 271.329 111.8 272.412 112.397C273.518 112.994 274.48 113.934 275.298 115.216L273.341 116.61C272.744 115.681 272.058 114.984 271.284 114.52C270.532 114.033 269.526 113.79 268.266 113.79C266.85 113.79 265.766 114.1 265.015 114.719C264.285 115.338 263.92 116.344 263.92 117.738C263.92 118.866 264.218 119.717 264.815 120.292C265.435 120.867 266.419 121.321 267.768 121.652L269.493 122.084C270.577 122.349 271.495 122.67 272.246 123.046C272.998 123.399 273.607 123.842 274.071 124.373C274.558 124.903 274.9 125.534 275.099 126.263C275.321 126.971 275.431 127.801 275.431 128.751C275.431 130.941 274.779 132.611 273.474 133.761C272.191 134.889 270.411 135.453 268.133 135.453ZM291.464 135.055V125.899L284.299 111.899H287.318L292.659 122.913H292.99L298.331 111.899H301.284L294.118 125.899V135.055H291.464ZM318.803 135.453C317.498 135.453 316.326 135.22 315.286 134.756C314.247 134.269 313.362 133.54 312.633 132.567C311.925 131.593 311.372 130.355 310.974 128.851C310.598 127.325 310.41 125.534 310.41 123.477C310.41 121.42 310.598 119.64 310.974 118.136C311.372 116.61 311.925 115.36 312.633 114.387C313.362 113.414 314.247 112.695 315.286 112.231C316.326 111.744 317.498 111.501 318.803 111.501C320.705 111.501 322.231 111.91 323.381 112.728C324.531 113.525 325.438 114.752 326.101 116.411L323.978 117.705C323.558 116.444 322.95 115.493 322.153 114.852C321.379 114.188 320.263 113.856 318.803 113.856C317.034 113.856 315.662 114.498 314.689 115.78C313.738 117.041 313.263 118.744 313.263 120.889V126.064C313.263 128.21 313.738 129.924 314.689 131.206C315.662 132.467 317.034 133.097 318.803 133.097C320.307 133.097 321.468 132.754 322.286 132.069C323.104 131.361 323.724 130.344 324.144 129.017L326.267 130.344C325.604 132.003 324.664 133.274 323.447 134.159C322.253 135.021 320.705 135.453 318.803 135.453ZM337.539 135.453C334.73 135.453 332.552 134.491 331.004 132.567C329.456 130.642 328.682 127.613 328.682 123.477C328.682 119.341 329.456 116.311 331.004 114.387C332.552 112.463 334.73 111.501 337.539 111.501C340.348 111.501 342.526 112.463 344.074 114.387C345.622 116.311 346.396 119.341 346.396 123.477C346.396 127.613 345.622 130.642 344.074 132.567C342.526 134.491 340.348 135.453 337.539 135.453ZM337.539 133.097C339.463 133.097 340.945 132.467 341.984 131.206C343.024 129.924 343.544 128.21 343.544 126.064V120.889C343.544 118.744 343.024 117.041 341.984 115.78C340.945 114.498 339.463 113.856 337.539 113.856C335.615 113.856 334.133 114.498 333.094 115.78C332.054 117.041 331.535 118.744 331.535 120.889V126.064C331.535 128.21 332.054 129.924 333.094 131.206C334.133 132.467 335.615 133.097 337.539 133.097ZM355.576 120.027L353.552 115.25H353.22L353.452 120.027V135.055H350.865V111.899H354.116L361.812 126.927L363.836 131.704H364.168L363.935 126.927V111.899H366.523V135.055H363.272L355.576 120.027ZM371.987 111.899H379.253C381.929 111.899 383.996 112.828 385.456 114.686C386.916 116.521 387.646 119.452 387.646 123.477C387.646 127.502 386.916 130.443 385.456 132.301C383.996 134.137 381.929 135.055 379.253 135.055H371.987V111.899ZM379.253 132.732C380.911 132.732 382.249 132.157 383.267 131.007C384.284 129.857 384.793 128.21 384.793 126.064V120.889C384.793 118.744 384.284 117.096 383.267 115.946C382.249 114.796 380.911 114.221 379.253 114.221H374.641V132.732H379.253ZM391.143 135.055V132.865H394.062V114.089H391.143V111.899H399.635V114.089H396.716V132.865H399.635V135.055H391.143ZM411.522 135.453C410.217 135.453 409.045 135.22 408.005 134.756C406.966 134.269 406.081 133.54 405.351 132.567C404.644 131.593 404.091 130.355 403.693 128.851C403.317 127.325 403.129 125.534 403.129 123.477C403.129 121.42 403.317 119.64 403.693 118.136C404.091 116.61 404.644 115.36 405.351 114.387C406.081 113.414 406.966 112.695 408.005 112.231C409.045 111.744 410.217 111.501 411.522 111.501C413.424 111.501 414.95 111.91 416.1 112.728C417.25 113.525 418.157 114.752 418.82 116.411L416.697 117.705C416.277 116.444 415.669 115.493 414.872 114.852C414.098 114.188 412.981 113.856 411.522 113.856C409.753 113.856 408.381 114.498 407.408 115.78C406.457 117.041 405.982 118.744 405.982 120.889V126.064C405.982 128.21 406.457 129.924 407.408 131.206C408.381 132.467 409.753 133.097 411.522 133.097C413.026 133.097 414.187 132.754 415.005 132.069C415.823 131.361 416.443 130.344 416.863 129.017L418.986 130.344C418.323 132.003 417.383 133.274 416.166 134.159C414.972 135.021 413.424 135.453 411.522 135.453ZM421.758 135.055V132.865H424.677V114.089H421.758V111.899H430.25V114.089H427.331V132.865H430.25V135.055H421.758ZM442.601 135.453C439.792 135.453 437.614 134.491 436.066 132.567C434.518 130.642 433.744 127.613 433.744 123.477C433.744 119.341 434.518 116.311 436.066 114.387C437.614 112.463 439.792 111.501 442.601 111.501C445.41 111.501 447.588 112.463 449.136 114.387C450.684 116.311 451.458 119.341 451.458 123.477C451.458 127.613 450.684 130.642 449.136 132.567C447.588 134.491 445.41 135.453 442.601 135.453ZM442.601 133.097C444.525 133.097 446.007 132.467 447.046 131.206C448.086 129.924 448.605 128.21 448.605 126.064V120.889C448.605 118.744 448.086 117.041 447.046 115.78C446.007 114.498 444.525 113.856 442.601 113.856C440.677 113.856 439.195 114.498 438.156 115.78C437.116 117.041 436.596 118.744 436.596 120.889V126.064C436.596 128.21 437.116 129.924 438.156 131.206C439.195 132.467 440.677 133.097 442.601 133.097ZM460.638 120.027L458.614 115.25H458.282L458.514 120.027V135.055H455.927V111.899H459.178L466.874 126.927L468.898 131.704H469.23L468.997 126.927V111.899H471.585V135.055H468.334L460.638 120.027ZM477.049 135.055V111.899H489.855V114.221H479.703V122.183H489.224V124.505H479.703V132.732H489.855V135.055H477.049ZM500.416 135.453C498.757 135.453 497.309 135.11 496.07 134.424C494.832 133.717 493.803 132.743 492.985 131.505L494.909 129.913C495.617 130.952 496.413 131.759 497.298 132.334C498.182 132.887 499.222 133.164 500.416 133.164C503.557 133.164 505.127 131.693 505.127 128.751C505.127 127.557 504.839 126.65 504.264 126.031C503.689 125.412 502.694 124.925 501.279 124.572L499.554 124.14C497.519 123.632 496.015 122.891 495.042 121.918C494.091 120.922 493.615 119.529 493.615 117.738C493.615 115.681 494.257 114.133 495.54 113.093C496.822 112.032 498.525 111.501 500.648 111.501C502.263 111.501 503.612 111.8 504.696 112.397C505.801 112.994 506.763 113.934 507.582 115.216L505.624 116.61C505.027 115.681 504.342 114.984 503.568 114.52C502.816 114.033 501.809 113.79 500.549 113.79C499.133 113.79 498.05 114.1 497.298 114.719C496.568 115.338 496.203 116.344 496.203 117.738C496.203 118.866 496.502 119.717 497.099 120.292C497.718 120.867 498.702 121.321 500.051 121.652L501.776 122.084C502.86 122.349 503.778 122.67 504.53 123.046C505.282 123.399 505.89 123.842 506.354 124.373C506.841 124.903 507.184 125.534 507.383 126.263C507.604 126.971 507.714 127.801 507.714 128.751C507.714 130.941 507.062 132.611 505.757 133.761C504.474 134.889 502.694 135.453 500.416 135.453Z" fill="black"/>
<path d="M132.154 204.075H130.385V188.638H136.069C138.619 188.638 139.895 190.105 139.895 193.039C139.895 195.516 138.981 196.946 137.152 197.33L140.271 204.075H138.28L135.383 197.44H132.154V204.075ZM136.025 195.936C137.337 195.936 137.993 195.229 137.993 193.813V192.309C137.993 190.894 137.337 190.186 136.025 190.186H132.154V195.936H136.025ZM146.736 204.34C146.072 204.34 145.453 204.23 144.878 204.009C144.303 203.788 143.809 203.434 143.396 202.947C142.983 202.461 142.659 201.841 142.423 201.089C142.187 200.337 142.069 199.431 142.069 198.369C142.069 197.308 142.187 196.401 142.423 195.649C142.659 194.897 142.983 194.278 143.396 193.791C143.809 193.305 144.303 192.951 144.878 192.73C145.453 192.508 146.072 192.398 146.736 192.398C147.399 192.398 148.004 192.508 148.549 192.73C149.109 192.951 149.581 193.305 149.965 193.791C150.348 194.278 150.643 194.897 150.849 195.649C151.07 196.401 151.181 197.308 151.181 198.369V198.789H143.861V199.519C143.861 200.64 144.111 201.48 144.612 202.04C145.129 202.586 145.836 202.859 146.736 202.859C147.502 202.859 148.129 202.697 148.615 202.372C149.102 202.033 149.485 201.532 149.766 200.868L150.916 201.709C150.562 202.49 150.038 203.124 149.345 203.611C148.667 204.097 147.797 204.34 146.736 204.34ZM146.736 193.813C145.821 193.813 145.114 194.101 144.612 194.676C144.111 195.251 143.861 196.099 143.861 197.219V197.507H149.39V197.219C149.39 194.949 148.505 193.813 146.736 193.813ZM160.34 202.217H160.118C159.897 202.969 159.536 203.515 159.035 203.854C158.548 204.178 157.951 204.34 157.243 204.34C156.565 204.34 155.968 204.2 155.452 203.92C154.936 203.64 154.501 203.242 154.147 202.726C153.793 202.21 153.528 201.583 153.351 200.846C153.174 200.109 153.086 199.283 153.086 198.369C153.086 197.455 153.174 196.629 153.351 195.892C153.528 195.155 153.793 194.528 154.147 194.012C154.501 193.496 154.936 193.098 155.452 192.818C155.968 192.538 156.565 192.398 157.243 192.398C157.951 192.398 158.548 192.567 159.035 192.906C159.536 193.231 159.897 193.769 160.118 194.521H160.34V192.663H162.02V208.498H160.34V202.217ZM157.752 202.837C158.106 202.837 158.438 202.785 158.747 202.682C159.072 202.579 159.344 202.431 159.566 202.239C159.801 202.048 159.986 201.819 160.118 201.554C160.266 201.288 160.34 200.994 160.34 200.669V196.069C160.34 195.745 160.266 195.45 160.118 195.184C159.986 194.919 159.801 194.69 159.566 194.499C159.344 194.307 159.072 194.16 158.747 194.057C158.438 193.953 158.106 193.902 157.752 193.902C156.823 193.902 156.115 194.197 155.629 194.786C155.142 195.361 154.899 196.172 154.899 197.219V199.519C154.899 200.566 155.142 201.384 155.629 201.974C156.115 202.549 156.823 202.837 157.752 202.837ZM171.694 202.217H171.473C171.252 202.925 170.905 203.456 170.434 203.81C169.977 204.164 169.35 204.34 168.554 204.34C167.536 204.34 166.733 203.994 166.143 203.301C165.568 202.608 165.281 201.539 165.281 200.094V192.663H166.961V199.984C166.961 200.898 167.146 201.598 167.514 202.085C167.898 202.571 168.48 202.814 169.261 202.814C169.94 202.814 170.515 202.608 170.987 202.195C171.458 201.782 171.694 201.2 171.694 200.448V192.663H173.375V204.075H171.694V202.217ZM177.57 189.899C176.877 189.899 176.531 189.596 176.531 188.992V188.638C176.531 188.034 176.877 187.731 177.57 187.731C178.263 187.731 178.61 188.034 178.61 188.638V188.992C178.61 189.596 178.263 189.899 177.57 189.899ZM176.73 192.663H178.411V204.075H176.73V192.663ZM184.925 204.34C183.981 204.34 183.17 204.149 182.492 203.765C181.829 203.382 181.261 202.851 180.789 202.173L181.961 201.2C182.359 201.76 182.787 202.188 183.244 202.483C183.716 202.778 184.276 202.925 184.925 202.925C185.588 202.925 186.112 202.763 186.495 202.438C186.893 202.099 187.092 201.62 187.092 201.001C187.092 200.5 186.967 200.094 186.716 199.785C186.466 199.475 186.001 199.261 185.323 199.143L184.46 198.988C183.355 198.782 182.529 198.435 181.983 197.949C181.453 197.462 181.187 196.725 181.187 195.737C181.187 195.162 181.276 194.668 181.453 194.256C181.63 193.828 181.88 193.481 182.205 193.216C182.529 192.936 182.912 192.737 183.355 192.619C183.812 192.486 184.306 192.42 184.836 192.42C185.692 192.42 186.407 192.575 186.982 192.884C187.571 193.179 188.08 193.614 188.508 194.189L187.424 195.184C187.173 194.831 186.842 194.521 186.429 194.256C186.016 193.975 185.485 193.835 184.836 193.835C183.495 193.835 182.824 194.447 182.824 195.671C182.824 196.231 182.964 196.644 183.244 196.909C183.539 197.16 184.011 197.344 184.659 197.462L185.522 197.617C186.687 197.824 187.512 198.185 187.999 198.701C188.486 199.217 188.729 199.917 188.729 200.802C188.729 201.908 188.404 202.778 187.756 203.412C187.122 204.031 186.178 204.34 184.925 204.34ZM192.322 189.899C191.629 189.899 191.282 189.596 191.282 188.992V188.638C191.282 188.034 191.629 187.731 192.322 187.731C193.015 187.731 193.361 188.034 193.361 188.638V188.992C193.361 189.596 193.015 189.899 192.322 189.899ZM191.481 192.663H193.162V204.075H191.481V192.663ZM198.814 204.075C198.209 204.075 197.767 203.942 197.487 203.677C197.221 203.397 197.088 202.955 197.088 202.35V194.145H195.408V192.663H196.403C196.742 192.663 196.963 192.582 197.066 192.42C197.184 192.243 197.243 191.985 197.243 191.646V189.523H198.769V192.663H200.981V194.145H198.769V202.593H200.87V204.075H198.814ZM207.36 204.34C206.697 204.34 206.078 204.23 205.503 204.009C204.928 203.788 204.434 203.434 204.021 202.947C203.608 202.461 203.284 201.841 203.048 201.089C202.812 200.337 202.694 199.431 202.694 198.369C202.694 197.308 202.812 196.401 203.048 195.649C203.284 194.897 203.608 194.278 204.021 193.791C204.434 193.305 204.928 192.951 205.503 192.73C206.078 192.508 206.697 192.398 207.36 192.398C208.024 192.398 208.643 192.508 209.218 192.73C209.793 192.951 210.287 193.305 210.7 193.791C211.113 194.278 211.437 194.897 211.673 195.649C211.909 196.401 212.027 197.308 212.027 198.369C212.027 199.431 211.909 200.337 211.673 201.089C211.437 201.841 211.113 202.461 210.7 202.947C210.287 203.434 209.793 203.788 209.218 204.009C208.643 204.23 208.024 204.34 207.36 204.34ZM207.36 202.837C208.274 202.837 208.975 202.564 209.461 202.018C209.963 201.473 210.213 200.64 210.213 199.519V197.219C210.213 196.099 209.963 195.266 209.461 194.72C208.975 194.174 208.274 193.902 207.36 193.902C206.446 193.902 205.739 194.174 205.237 194.72C204.751 195.266 204.507 196.099 204.507 197.219V199.519C204.507 200.64 204.751 201.473 205.237 202.018C205.739 202.564 206.446 202.837 207.36 202.837ZM223.191 204.34C222.528 204.34 221.909 204.23 221.334 204.009C220.759 203.788 220.265 203.434 219.852 202.947C219.439 202.461 219.115 201.841 218.879 201.089C218.643 200.337 218.525 199.431 218.525 198.369C218.525 197.308 218.643 196.401 218.879 195.649C219.115 194.897 219.439 194.278 219.852 193.791C220.265 193.305 220.759 192.951 221.334 192.73C221.909 192.508 222.528 192.398 223.191 192.398C223.855 192.398 224.459 192.508 225.005 192.73C225.565 192.951 226.037 193.305 226.42 193.791C226.804 194.278 227.099 194.897 227.305 195.649C227.526 196.401 227.637 197.308 227.637 198.369V198.789H220.316V199.519C220.316 200.64 220.567 201.48 221.068 202.04C221.584 202.586 222.292 202.859 223.191 202.859C223.958 202.859 224.585 202.697 225.071 202.372C225.558 202.033 225.941 201.532 226.221 200.868L227.371 201.709C227.018 202.49 226.494 203.124 225.801 203.611C225.123 204.097 224.253 204.34 223.191 204.34ZM223.191 193.813C222.277 193.813 221.57 194.101 221.068 194.676C220.567 195.251 220.316 196.099 220.316 197.219V197.507H225.845V197.219C225.845 194.949 224.961 193.813 223.191 193.813ZM228.772 204.075L232.532 198.259L228.927 192.663H230.829L233.373 196.821H233.594L236.181 192.663H238.017L234.434 198.192L238.128 204.075H236.226L233.594 199.608H233.373L230.608 204.075H228.772ZM243.663 204.34C242.248 204.34 241.134 203.876 240.323 202.947C239.527 202.018 239.129 200.492 239.129 198.369C239.129 196.246 239.527 194.72 240.323 193.791C241.134 192.862 242.248 192.398 243.663 192.398C244.739 192.398 245.594 192.648 246.228 193.15C246.877 193.636 247.349 194.263 247.644 195.03L246.251 195.737C246.059 195.148 245.757 194.698 245.344 194.388C244.931 194.064 244.371 193.902 243.663 193.902C242.734 193.902 242.048 194.174 241.606 194.72C241.164 195.266 240.943 196.099 240.943 197.219V199.519C240.943 200.64 241.164 201.473 241.606 202.018C242.048 202.564 242.734 202.837 243.663 202.837C244.4 202.837 244.99 202.674 245.432 202.35C245.889 202.026 246.251 201.532 246.516 200.868L247.754 201.731C247.415 202.527 246.899 203.161 246.206 203.633C245.528 204.105 244.68 204.34 243.663 204.34ZM251.671 204.075C251.067 204.075 250.624 203.942 250.344 203.677C250.079 203.397 249.946 202.955 249.946 202.35V187.709H251.627V202.593H253.065V204.075H251.671ZM261.713 202.217H261.492C261.271 202.925 260.925 203.456 260.453 203.81C259.996 204.164 259.369 204.34 258.573 204.34C257.556 204.34 256.752 203.994 256.162 203.301C255.587 202.608 255.3 201.539 255.3 200.094V192.663H256.981V199.984C256.981 200.898 257.165 201.598 257.534 202.085C257.917 202.571 258.499 202.814 259.281 202.814C259.959 202.814 260.534 202.608 261.006 202.195C261.478 201.782 261.713 201.2 261.713 200.448V192.663H263.394V204.075H261.713V202.217ZM272.942 192.663H274.578L270.067 206.994C269.978 207.289 269.882 207.533 269.779 207.724C269.676 207.931 269.543 208.085 269.381 208.189C269.234 208.307 269.049 208.388 268.828 208.432C268.622 208.476 268.356 208.498 268.032 208.498H266.793V207.017H268.541L269.204 204.694L265.422 192.663H267.103L268.85 198.413L269.912 202.593H270.133L271.195 198.413L272.942 192.663ZM280.425 204.34C279.762 204.34 279.143 204.23 278.568 204.009C277.993 203.788 277.499 203.434 277.086 202.947C276.673 202.461 276.349 201.841 276.113 201.089C275.877 200.337 275.759 199.431 275.759 198.369C275.759 197.308 275.877 196.401 276.113 195.649C276.349 194.897 276.673 194.278 277.086 193.791C277.499 193.305 277.993 192.951 278.568 192.73C279.143 192.508 279.762 192.398 280.425 192.398C281.089 192.398 281.693 192.508 282.239 192.73C282.799 192.951 283.271 193.305 283.654 193.791C284.038 194.278 284.333 194.897 284.539 195.649C284.76 196.401 284.871 197.308 284.871 198.369V198.789H277.55V199.519C277.55 200.64 277.801 201.48 278.302 202.04C278.818 202.586 279.526 202.859 280.425 202.859C281.192 202.859 281.819 202.697 282.305 202.372C282.792 202.033 283.175 201.532 283.455 200.868L284.605 201.709C284.251 202.49 283.728 203.124 283.035 203.611C282.357 204.097 281.487 204.34 280.425 204.34ZM280.425 193.813C279.511 193.813 278.804 194.101 278.302 194.676C277.801 195.251 277.55 196.099 277.55 197.219V197.507H283.079V197.219C283.079 194.949 282.195 193.813 280.425 193.813ZM287.483 204.075V192.663H289.164V194.521H289.385C289.606 193.813 289.945 193.282 290.402 192.929C290.874 192.575 291.508 192.398 292.304 192.398C293.322 192.398 294.118 192.744 294.693 193.437C295.283 194.13 295.577 195.199 295.577 196.644V204.075H293.897V196.755C293.897 195.841 293.705 195.14 293.322 194.654C292.953 194.167 292.378 193.924 291.597 193.924C290.918 193.924 290.343 194.13 289.871 194.543C289.4 194.956 289.164 195.538 289.164 196.29V204.075H287.483ZM301.122 204.075C300.517 204.075 300.075 203.942 299.795 203.677C299.529 203.397 299.397 202.955 299.397 202.35V194.145H297.716V192.663H298.711C299.05 192.663 299.271 192.582 299.375 192.42C299.493 192.243 299.552 191.985 299.552 191.646V189.523H301.078V192.663H303.289V194.145H301.078V202.593H303.179V204.075H301.122ZM309.669 204.34C309.005 204.34 308.386 204.23 307.811 204.009C307.236 203.788 306.742 203.434 306.329 202.947C305.916 202.461 305.592 201.841 305.356 201.089C305.12 200.337 305.002 199.431 305.002 198.369C305.002 197.308 305.12 196.401 305.356 195.649C305.592 194.897 305.916 194.278 306.329 193.791C306.742 193.305 307.236 192.951 307.811 192.73C308.386 192.508 309.005 192.398 309.669 192.398C310.332 192.398 310.937 192.508 311.482 192.73C312.042 192.951 312.514 193.305 312.898 193.791C313.281 194.278 313.576 194.897 313.782 195.649C314.003 196.401 314.114 197.308 314.114 198.369V198.789H306.794V199.519C306.794 200.64 307.044 201.48 307.546 202.04C308.062 202.586 308.769 202.859 309.669 202.859C310.435 202.859 311.062 202.697 311.549 202.372C312.035 202.033 312.418 201.532 312.699 200.868L313.849 201.709C313.495 202.49 312.971 203.124 312.278 203.611C311.6 204.097 310.73 204.34 309.669 204.34ZM309.669 193.813C308.755 193.813 308.047 194.101 307.546 194.676C307.044 195.251 306.794 196.099 306.794 197.219V197.507H312.323V197.219C312.323 194.949 311.438 193.813 309.669 193.813ZM321.413 192.663H323.094V194.521H323.315C323.536 193.769 323.89 193.231 324.377 192.906C324.878 192.567 325.482 192.398 326.19 192.398C326.868 192.398 327.465 192.538 327.981 192.818C328.497 193.098 328.932 193.496 329.286 194.012C329.64 194.528 329.906 195.155 330.082 195.892C330.259 196.629 330.348 197.455 330.348 198.369C330.348 199.283 330.259 200.109 330.082 200.846C329.906 201.583 329.64 202.21 329.286 202.726C328.932 203.242 328.497 203.64 327.981 203.92C327.465 204.2 326.868 204.34 326.19 204.34C325.482 204.34 324.878 204.178 324.377 203.854C323.89 203.515 323.536 202.969 323.315 202.217H323.094V208.498H321.413V192.663ZM325.681 202.837C326.61 202.837 327.318 202.549 327.804 201.974C328.291 201.384 328.534 200.566 328.534 199.519V197.219C328.534 196.172 328.291 195.361 327.804 194.786C327.318 194.197 326.61 193.902 325.681 193.902C325.327 193.902 324.988 193.953 324.664 194.057C324.354 194.16 324.082 194.307 323.846 194.499C323.625 194.69 323.44 194.919 323.293 195.184C323.16 195.45 323.094 195.745 323.094 196.069V200.669C323.094 200.994 323.16 201.288 323.293 201.554C323.44 201.819 323.625 202.048 323.846 202.239C324.082 202.431 324.354 202.579 324.664 202.682C324.988 202.785 325.327 202.837 325.681 202.837ZM340.221 204.075C339.13 204.075 338.584 203.53 338.584 202.438V202.217H338.363C338.171 202.91 337.817 203.441 337.301 203.81C336.8 204.164 336.196 204.34 335.488 204.34C334.382 204.34 333.556 204.06 333.011 203.5C332.465 202.94 332.193 202.114 332.193 201.023C332.193 199.961 332.539 199.121 333.232 198.502C333.94 197.883 335.038 197.573 336.527 197.573H338.584V196.312C338.584 195.472 338.392 194.853 338.009 194.455C337.641 194.057 337.051 193.857 336.24 193.857C335.576 193.857 335.038 194.005 334.625 194.3C334.227 194.58 333.881 194.993 333.586 195.538L332.591 194.609C332.886 193.99 333.357 193.474 334.006 193.061C334.655 192.634 335.422 192.42 336.306 192.42C337.604 192.42 338.584 192.737 339.248 193.371C339.926 193.99 340.265 194.912 340.265 196.135V202.593H341.415V204.075H340.221ZM335.908 202.881C336.291 202.881 336.645 202.814 336.97 202.682C337.309 202.549 337.596 202.38 337.832 202.173C338.068 201.952 338.252 201.709 338.385 201.443C338.518 201.163 338.584 200.876 338.584 200.581V198.856H336.483C335.598 198.856 334.95 199.003 334.537 199.298C334.139 199.593 333.94 200.02 333.94 200.581V201.2C333.94 201.775 334.117 202.203 334.471 202.483C334.824 202.748 335.304 202.881 335.908 202.881ZM343.702 204.075V192.663H345.383V194.786H345.604C345.795 194.123 346.12 193.607 346.577 193.238C347.049 192.855 347.661 192.663 348.412 192.663H349.032V194.366H347.926C347.13 194.366 346.503 194.543 346.046 194.897C345.604 195.251 345.383 195.782 345.383 196.489V204.075H343.702ZM358.104 204.075C357.013 204.075 356.467 203.53 356.467 202.438V202.217H356.246C356.054 202.91 355.7 203.441 355.184 203.81C354.683 204.164 354.079 204.34 353.371 204.34C352.265 204.34 351.439 204.06 350.894 203.5C350.348 202.94 350.076 202.114 350.076 201.023C350.076 199.961 350.422 199.121 351.115 198.502C351.823 197.883 352.921 197.573 354.41 197.573H356.467V196.312C356.467 195.472 356.275 194.853 355.892 194.455C355.523 194.057 354.934 193.857 354.123 193.857C353.459 193.857 352.921 194.005 352.508 194.3C352.11 194.58 351.764 194.993 351.469 195.538L350.474 194.609C350.768 193.99 351.24 193.474 351.889 193.061C352.538 192.634 353.304 192.42 354.189 192.42C355.487 192.42 356.467 192.737 357.131 193.371C357.809 193.99 358.148 194.912 358.148 196.135V202.593H359.298V204.075H358.104ZM353.791 202.881C354.174 202.881 354.528 202.814 354.853 202.682C355.192 202.549 355.479 202.38 355.715 202.173C355.951 201.952 356.135 201.709 356.268 201.443C356.401 201.163 356.467 200.876 356.467 200.581V198.856H354.366C353.481 198.856 352.833 199.003 352.42 199.298C352.022 199.593 351.823 200.02 351.823 200.581V201.2C351.823 201.775 352 202.203 352.353 202.483C352.707 202.748 353.186 202.881 353.791 202.881ZM366.271 204.075V192.663H367.952V194.521H368.173C368.395 193.813 368.734 193.282 369.191 192.929C369.662 192.575 370.296 192.398 371.093 192.398C372.11 192.398 372.906 192.744 373.481 193.437C374.071 194.13 374.366 195.199 374.366 196.644V204.075H372.685V196.755C372.685 195.841 372.493 195.14 372.11 194.654C371.741 194.167 371.166 193.924 370.385 193.924C369.707 193.924 369.132 194.13 368.66 194.543C368.188 194.956 367.952 195.538 367.952 196.29V204.075H366.271ZM384.82 204.075C383.729 204.075 383.183 203.53 383.183 202.438V202.217H382.962C382.771 202.91 382.417 203.441 381.901 203.81C381.399 204.164 380.795 204.34 380.087 204.34C378.981 204.34 378.156 204.06 377.61 203.5C377.065 202.94 376.792 202.114 376.792 201.023C376.792 199.961 377.138 199.121 377.831 198.502C378.539 197.883 379.637 197.573 381.127 197.573H383.183V196.312C383.183 195.472 382.992 194.853 382.608 194.455C382.24 194.057 381.65 193.857 380.839 193.857C380.176 193.857 379.637 194.005 379.225 194.3C378.827 194.58 378.48 194.993 378.185 195.538L377.19 194.609C377.485 193.99 377.957 193.474 378.605 193.061C379.254 192.634 380.021 192.42 380.905 192.42C382.203 192.42 383.183 192.737 383.847 193.371C384.525 193.99 384.864 194.912 384.864 196.135V202.593H386.014V204.075H384.82ZM380.507 202.881C380.891 202.881 381.245 202.814 381.569 202.682C381.908 202.549 382.196 202.38 382.431 202.173C382.667 201.952 382.852 201.709 382.984 201.443C383.117 201.163 383.183 200.876 383.183 200.581V198.856H381.082C380.198 198.856 379.549 199.003 379.136 199.298C378.738 199.593 378.539 200.02 378.539 200.581V201.2C378.539 201.775 378.716 202.203 379.07 202.483C379.424 202.748 379.903 202.881 380.507 202.881ZM390.319 204.075L386.736 192.663H388.417L390.164 198.413L391.226 202.593H391.447L392.509 198.413L394.256 192.663H395.893L392.31 204.075H390.319ZM401.675 204.34C401.011 204.34 400.392 204.23 399.817 204.009C399.242 203.788 398.748 203.434 398.335 202.947C397.922 202.461 397.598 201.841 397.362 201.089C397.126 200.337 397.008 199.431 397.008 198.369C397.008 197.308 397.126 196.401 397.362 195.649C397.598 194.897 397.922 194.278 398.335 193.791C398.748 193.305 399.242 192.951 399.817 192.73C400.392 192.508 401.011 192.398 401.675 192.398C402.338 192.398 402.943 192.508 403.488 192.73C404.049 192.951 404.52 193.305 404.904 193.791C405.287 194.278 405.582 194.897 405.788 195.649C406.01 196.401 406.12 197.308 406.12 198.369V198.789H398.8V199.519C398.8 200.64 399.05 201.48 399.552 202.04C400.068 202.586 400.775 202.859 401.675 202.859C402.442 202.859 403.068 202.697 403.555 202.372C404.041 202.033 404.425 201.532 404.705 200.868L405.855 201.709C405.501 202.49 404.977 203.124 404.285 203.611C403.606 204.097 402.736 204.34 401.675 204.34ZM401.675 193.813C400.761 193.813 400.053 194.101 399.552 194.676C399.05 195.251 398.8 196.099 398.8 197.219V197.507H404.329V197.219C404.329 194.949 403.444 193.813 401.675 193.813ZM417.446 205.358C417.446 206.567 417.033 207.437 416.208 207.967C415.397 208.498 414.136 208.764 412.426 208.764C410.789 208.764 409.617 208.52 408.909 208.034C408.216 207.547 407.87 206.847 407.87 205.933C407.87 205.314 408.025 204.827 408.334 204.473C408.644 204.119 409.042 203.898 409.529 203.81V203.5C409.234 203.338 408.998 203.131 408.821 202.881C408.659 202.615 408.578 202.306 408.578 201.952C408.578 201.48 408.71 201.075 408.976 200.736C409.256 200.396 409.706 200.19 410.325 200.116V199.873C409.735 199.578 409.271 199.143 408.931 198.568C408.607 197.978 408.445 197.241 408.445 196.357C408.445 195.059 408.799 194.079 409.506 193.415C410.214 192.752 411.165 192.42 412.359 192.42C413.067 192.42 413.709 192.545 414.284 192.796V192.398C414.284 191.97 414.379 191.661 414.571 191.469C414.763 191.277 415.072 191.181 415.5 191.181H417.026V192.663H415.058V193.282C415.441 193.622 415.736 194.042 415.942 194.543C416.163 195.044 416.274 195.649 416.274 196.357C416.274 197.654 415.92 198.635 415.212 199.298C414.505 199.961 413.554 200.293 412.359 200.293C412.006 200.293 411.644 200.256 411.276 200.183C410.863 200.256 410.546 200.426 410.325 200.691C410.118 200.942 410.015 201.2 410.015 201.465C410.015 201.76 410.118 201.981 410.325 202.129C410.531 202.276 410.87 202.35 411.342 202.35H413.841C415.124 202.35 416.045 202.608 416.606 203.124C417.166 203.64 417.446 204.385 417.446 205.358ZM415.876 205.468C415.876 204.967 415.721 204.584 415.411 204.318C415.102 204.068 414.571 203.942 413.819 203.942H410.347C410.008 204.105 409.765 204.311 409.617 204.562C409.484 204.812 409.418 205.129 409.418 205.513C409.418 206.088 409.595 206.537 409.949 206.862C410.303 207.201 410.87 207.37 411.652 207.37H413.111C414.026 207.37 414.711 207.216 415.168 206.906C415.64 206.611 415.876 206.132 415.876 205.468ZM412.359 198.922C413.052 198.922 413.591 198.745 413.974 198.391C414.357 198.037 414.549 197.492 414.549 196.755V195.936C414.549 195.199 414.357 194.654 413.974 194.3C413.591 193.946 413.052 193.769 412.359 193.769C411.666 193.769 411.128 193.946 410.745 194.3C410.362 194.654 410.17 195.199 410.17 195.936V196.755C410.17 197.492 410.362 198.037 410.745 198.391C411.128 198.745 411.666 198.922 412.359 198.922ZM426.482 204.075C425.391 204.075 424.845 203.53 424.845 202.438V202.217H424.624C424.433 202.91 424.079 203.441 423.563 203.81C423.061 204.164 422.457 204.34 421.749 204.34C420.643 204.34 419.818 204.06 419.272 203.5C418.727 202.94 418.454 202.114 418.454 201.023C418.454 199.961 418.8 199.121 419.493 198.502C420.201 197.883 421.299 197.573 422.789 197.573H424.845V196.312C424.845 195.472 424.654 194.853 424.27 194.455C423.902 194.057 423.312 193.857 422.501 193.857C421.838 193.857 421.299 194.005 420.887 194.3C420.488 194.58 420.142 194.993 419.847 195.538L418.852 194.609C419.147 193.99 419.619 193.474 420.267 193.061C420.916 192.634 421.683 192.42 422.567 192.42C423.865 192.42 424.845 192.737 425.509 193.371C426.187 193.99 426.526 194.912 426.526 196.135V202.593H427.676V204.075H426.482ZM422.169 202.881C422.553 202.881 422.907 202.814 423.231 202.682C423.57 202.549 423.857 202.38 424.093 202.173C424.329 201.952 424.514 201.709 424.646 201.443C424.779 201.163 424.845 200.876 424.845 200.581V198.856H422.744C421.86 198.856 421.211 199.003 420.798 199.298C420.4 199.593 420.201 200.02 420.201 200.581V201.2C420.201 201.775 420.378 202.203 420.732 202.483C421.086 202.748 421.565 202.881 422.169 202.881ZM429.963 204.075V192.663H431.644V194.786H431.865C432.057 194.123 432.381 193.607 432.838 193.238C433.31 192.855 433.922 192.663 434.674 192.663H435.293V194.366H434.187C433.391 194.366 432.764 194.543 432.307 194.897C431.865 195.251 431.644 195.782 431.644 196.489V204.075H429.963ZM445.885 204.34C445.222 204.34 444.603 204.23 444.028 204.009C443.453 203.788 442.959 203.434 442.546 202.947C442.133 202.461 441.809 201.841 441.573 201.089C441.337 200.337 441.219 199.431 441.219 198.369C441.219 197.308 441.337 196.401 441.573 195.649C441.809 194.897 442.133 194.278 442.546 193.791C442.959 193.305 443.453 192.951 444.028 192.73C444.603 192.508 445.222 192.398 445.885 192.398C446.549 192.398 447.153 192.508 447.699 192.73C448.259 192.951 448.731 193.305 449.114 193.791C449.498 194.278 449.792 194.897 449.999 195.649C450.22 196.401 450.331 197.308 450.331 198.369V198.789H443.01V199.519C443.01 200.64 443.261 201.48 443.762 202.04C444.278 202.586 444.986 202.859 445.885 202.859C446.652 202.859 447.279 202.697 447.765 202.372C448.252 202.033 448.635 201.532 448.915 200.868L450.065 201.709C449.711 202.49 449.188 203.124 448.495 203.611C447.817 204.097 446.947 204.34 445.885 204.34ZM445.885 193.813C444.971 193.813 444.263 194.101 443.762 194.676C443.261 195.251 443.01 196.099 443.01 197.219V197.507H448.539V197.219C448.539 194.949 447.655 193.813 445.885 193.813ZM452.943 204.075V192.663H454.624V194.521H454.845C455.066 193.813 455.405 193.282 455.862 192.929C456.334 192.575 456.968 192.398 457.764 192.398C458.782 192.398 459.578 192.744 460.153 193.437C460.742 194.13 461.037 195.199 461.037 196.644V204.075H459.357V196.755C459.357 195.841 459.165 195.14 458.782 194.654C458.413 194.167 457.838 193.924 457.056 193.924C456.378 193.924 455.803 194.13 455.331 194.543C454.86 194.956 454.624 195.538 454.624 196.29V204.075H452.943ZM470.693 204.075C470.089 204.075 469.647 203.942 469.367 203.677C469.101 203.397 468.968 202.955 468.968 202.35V187.709H470.649V202.593H472.087V204.075H470.693ZM481.642 204.075C480.551 204.075 480.006 203.53 480.006 202.438V202.217H479.785C479.593 202.91 479.239 203.441 478.723 203.81C478.222 204.164 477.617 204.34 476.91 204.34C475.804 204.34 474.978 204.06 474.433 203.5C473.887 202.94 473.614 202.114 473.614 201.023C473.614 199.961 473.961 199.121 474.654 198.502C475.361 197.883 476.46 197.573 477.949 197.573H480.006V196.312C480.006 195.472 479.814 194.853 479.431 194.455C479.062 194.057 478.472 193.857 477.662 193.857C476.998 193.857 476.46 194.005 476.047 194.3C475.649 194.58 475.303 194.993 475.008 195.538L474.012 194.609C474.307 193.99 474.779 193.474 475.428 193.061C476.077 192.634 476.843 192.42 477.728 192.42C479.025 192.42 480.006 192.737 480.669 193.371C481.348 193.99 481.687 194.912 481.687 196.135V202.593H482.837V204.075H481.642ZM477.33 202.881C477.713 202.881 478.067 202.814 478.391 202.682C478.731 202.549 479.018 202.38 479.254 202.173C479.49 201.952 479.674 201.709 479.807 201.443C479.94 201.163 480.006 200.876 480.006 200.581V198.856H477.905C477.02 198.856 476.371 199.003 475.959 199.298C475.561 199.593 475.361 200.02 475.361 200.581V201.2C475.361 201.775 475.538 202.203 475.892 202.483C476.246 202.748 476.725 202.881 477.33 202.881ZM488.726 192.663H490.363L491.469 197.617L492.442 202.593H492.663L493.791 197.617L494.941 192.663H496.887L498.037 197.617L499.165 202.593H499.386L500.36 197.617L501.465 192.663H503.058L500.315 204.075H498.192L496.799 198.546L496.025 194.366H495.804L494.985 198.546L493.592 204.075H491.469L488.726 192.663ZM509.037 204.34C508.374 204.34 507.754 204.23 507.179 204.009C506.604 203.788 506.11 203.434 505.697 202.947C505.285 202.461 504.96 201.841 504.724 201.089C504.488 200.337 504.371 199.431 504.371 198.369C504.371 197.308 504.488 196.401 504.724 195.649C504.96 194.897 505.285 194.278 505.697 193.791C506.11 193.305 506.604 192.951 507.179 192.73C507.754 192.508 508.374 192.398 509.037 192.398C509.7 192.398 510.305 192.508 510.851 192.73C511.411 192.951 511.883 193.305 512.266 193.791C512.649 194.278 512.944 194.897 513.151 195.649C513.372 196.401 513.482 197.308 513.482 198.369V198.789H506.162V199.519C506.162 200.64 506.413 201.48 506.914 202.04C507.43 202.586 508.138 202.859 509.037 202.859C509.804 202.859 510.43 202.697 510.917 202.372C511.403 202.033 511.787 201.532 512.067 200.868L513.217 201.709C512.863 202.49 512.34 203.124 511.647 203.611C510.968 204.097 510.099 204.34 509.037 204.34ZM509.037 193.813C508.123 193.813 507.415 194.101 506.914 194.676C506.413 195.251 506.162 196.099 506.162 197.219V197.507H511.691V197.219C511.691 194.949 510.806 193.813 509.037 193.813ZM516.095 187.709H517.775V194.521H517.997C518.218 193.769 518.572 193.231 519.058 192.906C519.559 192.567 520.164 192.398 520.872 192.398C521.55 192.398 522.147 192.538 522.663 192.818C523.179 193.098 523.614 193.496 523.968 194.012C524.322 194.528 524.587 195.155 524.764 195.892C524.941 196.629 525.029 197.455 525.029 198.369C525.029 199.283 524.941 200.109 524.764 200.846C524.587 201.583 524.322 202.21 523.968 202.726C523.614 203.242 523.179 203.64 522.663 203.92C522.147 204.2 521.55 204.34 520.872 204.34C520.164 204.34 519.559 204.178 519.058 203.854C518.572 203.515 518.218 202.969 517.997 202.217H517.775V204.075H516.095V187.709ZM520.363 202.837C521.292 202.837 522 202.549 522.486 201.974C522.973 201.384 523.216 200.566 523.216 199.519V197.219C523.216 196.172 522.973 195.361 522.486 194.786C522 194.197 521.292 193.902 520.363 193.902C520.009 193.902 519.67 193.953 519.346 194.057C519.036 194.16 518.763 194.307 518.527 194.499C518.306 194.69 518.122 194.919 517.974 195.184C517.842 195.45 517.775 195.745 517.775 196.069V200.669C517.775 200.994 517.842 201.288 517.974 201.554C518.122 201.819 518.306 202.048 518.527 202.239C518.763 202.431 519.036 202.579 519.346 202.682C519.67 202.785 520.009 202.837 520.363 202.837Z" fill="black"/>
</svg>
