<svg width="565" height="293" viewBox="0 0 565 293" fill="none" xmlns="http://www.w3.org/2000/svg">
<g filter="url(#filter0_d_263_666)">
<rect x="1.5" y="1.5" width="546" height="274" fill="white" stroke="#6CEB1A"/>
<rect x="1.5" y="1.5" width="545.715" height="47" fill="#D9D9D9" stroke="#6CEB1A"/>
<path d="M91.7546 167.245V158.044H96.3709V167.245H91.7546ZM87.1697 158.044V148.843H91.7546V158.044H87.1697ZM78 181V135.089H82.5849V139.673H87.1697V148.843H82.5849V181H78ZM100.956 181V176.415H96.3709V167.245H100.956V135.089H105.541V181H100.956ZM120.834 181V176.415H134.62V181H120.834ZM116.249 176.415V153.459H120.834V176.415H116.249ZM134.62 176.415V153.459H139.205V176.415H134.62ZM120.834 153.459V148.843H134.62V153.459H120.834ZM156.791 181V176.415H165.992V181H156.791ZM152.206 176.415V153.459H147.621V148.843H152.206V135.089H156.791V148.843H165.992V153.459H156.791V176.415H152.206ZM185.901 181V139.673H190.486V148.843H199.656V153.459H190.486V181H185.901ZM190.486 139.673V135.089H199.656V139.673H190.486ZM212.657 181V176.415H226.443V181H212.657ZM208.072 176.415V153.459H212.657V176.415H208.072ZM226.443 176.415V153.459H231.028V176.415H226.443ZM212.657 153.459V148.843H226.443V153.459H212.657ZM246.321 181V176.415H260.107V181H246.321ZM241.736 176.415V148.843H246.321V176.415H241.736ZM260.107 176.415V148.843H264.692V176.415H260.107ZM275.4 181V153.459H279.985V181H275.4ZM293.771 181V153.459H298.356V181H293.771ZM279.985 153.459V148.843H293.771V153.459H279.985ZM313.65 181V176.415H327.436V181H313.65ZM309.065 176.415V153.459H313.65V176.415H309.065ZM313.65 153.459V148.843H322.819V153.459H313.65ZM327.436 176.415V158.044H322.819V153.459H327.436V135.089H332.02V176.415H327.436Z" fill="#0101B1"/>
<path d="M399 196V188.435H406.565V196H399ZM399 150.558V142.941H406.565V150.558H399ZM439.416 203.565V196H446.981V203.565H439.416ZM431.851 196V180.87H439.416V196H431.851ZM424.286 180.87V135.376H431.851V180.87H424.286ZM431.851 135.376V120.246H439.416V135.376H431.851ZM439.416 120.246V112.629H446.981V120.246H439.416Z" fill="#6CEB1A"/>
</g>
<defs>
<filter id="filter0_d_263_666" x="0" y="0" width="565" height="293" filterUnits="userSpaceOnUse" color-interpolation-filters="sRGB">
<feFlood flood-opacity="0" result="BackgroundImageFix"/>
<feColorMatrix in="SourceAlpha" type="matrix" values="0 0 0 0 0 0 0 0 0 0 0 0 0 0 0 0 0 0 127 0" result="hardAlpha"/>
<feOffset dx="8" dy="8"/>
<feGaussianBlur stdDeviation="4.5"/>
<feComposite in2="hardAlpha" operator="out"/>
<feColorMatrix type="matrix" values="0 0 0 0 0 0 0 0 0 0 0 0 0 0 0 0 0 0 0.25 0"/>
<feBlend mode="normal" in2="BackgroundImageFix" result="effect1_dropShadow_263_666"/>
<feBlend mode="normal" in="SourceGraphic" in2="effect1_dropShadow_263_666" result="shape"/>
</filter>
</defs>
</svg>
