<svg width="255" height="26" viewBox="0 0 255 26" fill="none" xmlns="http://www.w3.org/2000/svg">
<path d="M2.52601 26V23.474H12.6474V26H2.52601ZM0 23.474V3.2313H2.52601V23.474H0ZM12.6474 23.474V3.2313H15.1734V23.474H12.6474ZM2.52601 3.2313V0.705292H12.6474V3.2313H2.52601ZM26.1252 26V3.2313H18.5471V0.705292H36.2465V3.2313H28.6512V26H26.1252ZM53.2192 26V23.474H55.7452V26H53.2192ZM50.6932 23.474V20.948H53.2192V23.474H50.6932ZM48.1499 20.948V18.422H50.6932V20.948H48.1499ZM52.2677 13.3526V3.2313H54.7937V13.3526H52.2677ZM39.6203 26V0.705292H52.2677V3.2313H42.1463V13.3526H52.2677V15.8787H48.1499V18.422H45.6239V15.8787H42.1463V26H39.6203ZM62.908 26V23.474H73.0294V26H62.908ZM60.382 23.474V3.2313H62.908V23.474H60.382ZM73.0294 23.474V3.2313H75.5554V23.474H73.0294ZM62.908 3.2313V0.705292H73.0294V3.2313H62.908ZM83.341 26V23.474H93.4624V26H83.341ZM80.8323 23.474V20.948H83.341V23.474H80.8323ZM93.4624 23.474V15.8787H96.0057V23.474H93.4624ZM88.4104 15.8787V13.3526H93.4624V15.8787H88.4104ZM83.341 13.3526V10.8266H88.4104V13.3526H83.341ZM80.8323 10.8266V3.2313H83.341V10.8266H80.8323ZM93.4624 5.75731V3.2313H96.0057V5.75731H93.4624ZM83.341 3.2313V0.705292H93.4624V3.2313H83.341ZM109.83 26V23.474H119.951V26H109.83ZM107.304 23.474V0.705292H109.83V23.474H107.304ZM119.951 23.474V0.705292H122.477V23.474H119.951ZM130.263 26V23.474H140.384V26H130.263ZM127.754 23.474V20.948H130.263V23.474H127.754ZM140.384 23.474V15.8787H142.927V23.474H140.384ZM135.332 15.8787V13.3526H140.384V15.8787H135.332ZM130.263 13.3526V10.8266H135.332V13.3526H130.263ZM127.754 10.8266V3.2313H130.263V10.8266H127.754ZM140.384 5.75731V3.2313H142.927V5.75731H140.384ZM130.263 3.2313V0.705292H140.384V3.2313H130.263ZM150.419 26V23.474H160.54V26H150.419ZM147.893 23.474V0.705292H150.419V23.474H147.893ZM160.54 23.474V0.705292H163.066V23.474H160.54ZM168.966 26V3.2313H171.492V13.3526H181.613V3.2313H184.139V26H181.613V15.8787H171.492V26H168.966ZM171.492 3.2313V0.705292H181.613V3.2313H171.492ZM203.638 26V23.474H206.164V26H203.638ZM201.112 23.474V20.948H203.638V23.474H201.112ZM198.569 20.948V18.422H201.112V20.948H198.569ZM202.686 13.3526V3.2313H205.212V13.3526H202.686ZM190.039 26V0.705292H202.686V3.2313H192.565V13.3526H202.686V15.8787H198.569V18.422H196.043V15.8787H192.565V26H190.039ZM210.801 26V0.705292H213.327V26H210.801ZM221.77 26V23.474H231.891V26H221.77ZM219.244 23.474V3.2313H221.77V23.474H219.244ZM231.891 23.474V3.2313H234.417V23.474H231.891ZM221.77 3.2313V0.705292H231.891V3.2313H221.77ZM242.203 26V23.474H252.324V26H242.203ZM239.694 23.474V20.948H242.203V23.474H239.694ZM252.324 23.474V15.8787H254.868V23.474H252.324ZM247.272 15.8787V13.3526H252.324V15.8787H247.272ZM242.203 13.3526V10.8266H247.272V13.3526H242.203ZM239.694 10.8266V3.2313H242.203V10.8266H239.694ZM252.324 5.75731V3.2313H254.868V5.75731H252.324ZM242.203 3.2313V0.705292H252.324V3.2313H242.203Z" fill="black"/>
</svg>
