<svg width="379" height="372" viewBox="0 0 379 372" fill="none" xmlns="http://www.w3.org/2000/svg">
<g filter="url(#filter0_d_255_531)">
<rect x="1.5" y="1.5" width="360" height="353" fill="white" stroke="#6CEB1A"/>
<rect x="1" y="1" width="360.812" height="61.7891" fill="#6CEB1A"/>
<path d="M120.886 212V180.764H89.6925V149.527H95.8885V174.525H120.886V149.527H127.125V212H120.886ZM248.823 212V180.764H217.629V149.527H223.825V174.525H248.823V149.527H255.062V212H248.823Z" fill="black"/>
<path d="M153.156 153.154H183.306L196.236 166.12V204.846H153.156V153.154Z" fill="white"/>
<path d="M194.084 159.719H189.823V163.968H194.084V159.719Z" fill="#0101B1"/>
<path d="M189.823 155.32H185.494V159.719H189.823V155.32Z" fill="#0101B1"/>
<path d="M198.39 163.966H194.082V168.274H198.39V163.966Z" fill="#0101B1"/>
<path d="M198.39 168.247H194.082V172.556H198.39V168.247Z" fill="#0101B1"/>
<path d="M198.39 172.553H194.082V176.862H198.39V172.553Z" fill="#0101B1"/>
<path d="M198.39 176.857H194.082V181.166H198.39V176.857Z" fill="#0101B1"/>
<path d="M198.39 181.156H194.082V185.465H198.39V181.156Z" fill="#0101B1"/>
<path d="M198.39 185.463H194.082V189.771H198.39V185.463Z" fill="#0101B1"/>
<path d="M198.39 189.78H194.082V194.088H198.39V189.78Z" fill="#0101B1"/>
<path d="M198.39 194.095H194.082V198.404H198.39V194.095Z" fill="#0101B1"/>
<path d="M198.39 198.406H194.082V202.714H198.39V198.406Z" fill="#0101B1"/>
<path d="M198.39 202.692H194.082V207H198.39V202.692Z" fill="#0101B1"/>
<path d="M155.311 163.916H151.002V168.225H155.311V163.916Z" fill="#0101B1"/>
<path d="M155.311 168.197H151.002V172.506H155.311V168.197Z" fill="#0101B1"/>
<path d="M155.311 172.504H151.002V176.812H155.311V172.504Z" fill="#0101B1"/>
<path d="M155.311 176.81H151.002V181.118H155.311V176.81Z" fill="#0101B1"/>
<path d="M155.311 151H151.002V155.308H155.311V151Z" fill="#0101B1"/>
<path d="M155.311 155.306H151.002V159.615H155.311V155.306Z" fill="#0101B1"/>
<path d="M155.311 159.612H151.002V163.921H155.311V159.612Z" fill="#0101B1"/>
<path d="M163.898 155.308V151H159.59V155.308H163.898Z" fill="#0101B1"/>
<path d="M159.617 155.308V151H155.308V155.308H159.617Z" fill="#0101B1"/>
<path d="M176.814 155.308V151H172.506V155.308H176.814Z" fill="#0101B1"/>
<path d="M172.51 155.311V151.002H168.202V155.311H172.51Z" fill="#0101B1"/>
<path d="M185.497 155.308V151H181.116V155.308H185.497Z" fill="#0101B1"/>
<path d="M181.118 155.308V151H176.81V155.308H181.118Z" fill="#0101B1"/>
<path d="M177.355 163.681H181.663V159.372H177.355V163.681Z" fill="#0101B1"/>
<path d="M177.355 159.375H181.663V155.066H177.355V159.375Z" fill="#0101B1"/>
<path d="M177.355 172.363H181.663V167.982H177.355V172.363Z" fill="#0101B1"/>
<path d="M177.355 167.985H181.663V163.676H177.355V167.985Z" fill="#0101B1"/>
<path d="M164.928 168.215H169.236V163.907H164.928V168.215Z" fill="#0101B1"/>
<path d="M164.869 176.184H169.177V171.803H164.869V176.184Z" fill="#0101B1"/>
<path d="M190.357 168.048V172.356H194.665V168.048H190.357Z" fill="#0101B1"/>
<path d="M181.672 168.048V172.356H186.053V168.048H181.672Z" fill="#0101B1"/>
<path d="M186.053 168.048V172.356H190.362V168.048H186.053Z" fill="#0101B1"/>
<path d="M168.204 155.311V151.002H163.896V155.311H168.204Z" fill="#0101B1"/>
<path d="M155.311 181.107H151.002V185.415H155.311V181.107Z" fill="#0101B1"/>
<path d="M155.311 185.413H151.002V189.721H155.311V185.413Z" fill="#0101B1"/>
<path d="M155.311 189.73H151.002V194.039H155.311V189.73Z" fill="#0101B1"/>
<path d="M155.311 194.048H151.002V198.356H155.311V194.048Z" fill="#0101B1"/>
<path d="M155.311 198.356H151.002V202.664H155.311V198.356Z" fill="#0101B1"/>
<path d="M194.091 206.973V202.664H189.782V206.973H194.091Z" fill="#0101B1"/>
<path d="M189.784 206.973V202.664H185.476V206.973H189.784Z" fill="#0101B1"/>
<path d="M185.526 206.973V202.664H181.082V206.973H185.526Z" fill="#0101B1"/>
<path d="M181.136 206.973V202.664H176.828V206.973H181.136Z" fill="#0101B1"/>
<path d="M176.83 206.973V202.664H172.522V206.973H176.83Z" fill="#0101B1"/>
<path d="M172.635 206.971V202.662H168.089V206.971H172.635Z" fill="#0101B1"/>
<path d="M168.197 206.971V202.662H163.889V206.971H168.197Z" fill="#0101B1"/>
<path d="M163.887 206.973V202.664H159.578V206.973H163.887Z" fill="#0101B1"/>
<path d="M159.601 206.971V202.662H155.293V206.971H159.601Z" fill="#0101B1"/>
<path d="M168.645 194.609V190.3H164.337V194.609H168.645Z" fill="#0101B1"/>
<path d="M185.888 194.609V190.3H181.58V194.609H185.888Z" fill="#0101B1"/>
<path d="M181.586 190.298V185.99H177.278V190.298H181.586Z" fill="#0101B1"/>
<path d="M177.282 190.298V185.99H172.974V190.298H177.282Z" fill="#0101B1"/>
<path d="M172.986 190.3V185.992H168.677V190.3H172.986Z" fill="#0101B1"/>
<path d="M155.308 206.973V202.664H151V206.973H155.308Z" fill="#0101B1"/>
<path d="M169.234 168.048V172.356H173.542V168.048H169.234Z" fill="#0101B1"/>
<path d="M160.551 168.048V172.356H164.932V168.048H160.551Z" fill="#0101B1"/>
<path d="M164.93 168.048V172.356H169.238V168.048H164.93Z" fill="#0101B1"/>
<path d="M100.775 246V244.113H104.563V246H100.775ZM97 253.563V234.663H98.8874V242.225H100.775V244.113H98.8874V253.563H97ZM104.563 244.113V234.663H106.45V244.113H104.563ZM98.8874 234.663V232.762H104.563V234.663H98.8874ZM112.746 246V244.113H118.421V246H112.746ZM110.858 244.113V240.338H112.746V244.113H110.858ZM110.858 236.55V234.663H112.746V236.55H110.858ZM118.421 244.113V240.338H112.746V238.437H118.421V234.663H120.308V244.113H118.421ZM112.746 234.663V232.762H118.421V234.663H112.746ZM126.604 253.563V251.662H132.279V253.563H126.604ZM124.717 251.662V249.775H126.604V251.662H124.717ZM126.604 246V244.113H130.379V246H126.604ZM124.717 244.113V234.663H126.604V244.113H124.717ZM132.279 251.662V244.113H130.379V242.225H132.279V234.663H134.167V251.662H132.279ZM126.604 234.663V232.762H132.279V234.663H126.604ZM140.462 246V244.113H146.137V246H140.462ZM146.137 244.113V242.225H148.025V244.113H146.137ZM138.575 244.113V234.663H140.462V238.437H146.137V234.663H148.025V240.338H140.462V244.113H138.575ZM140.462 234.663V232.762H146.137V234.663H140.462ZM157.165 246V234.663H159.052V246H157.165ZM164.727 246V234.663H166.615V246H164.727ZM159.052 234.663V232.762H164.727V234.663H159.052ZM172.91 246V244.113H178.585V246H172.91ZM171.023 244.113V234.663H172.91V244.113H171.023ZM178.585 244.113V234.663H180.473V244.113H178.585ZM172.91 234.663V232.762H178.585V234.663H172.91ZM187.712 246V244.113H191.5V246H187.712ZM185.825 244.113V234.663H183.937V232.762H185.825V227.1H187.712V232.762H191.5V234.663H187.712V244.113H185.825ZM199.696 246V228.987H201.583V232.762H205.358V234.663H201.583V246H199.696ZM201.583 228.987V227.1H205.358V228.987H201.583ZM210.71 246V244.113H216.385V246H210.71ZM208.823 244.113V234.663H210.71V244.113H208.823ZM216.385 244.113V234.663H218.273V244.113H216.385ZM210.71 234.663V232.762H216.385V234.663H210.71ZM224.568 246V244.113H230.244V246H224.568ZM222.681 244.113V232.762H224.568V244.113H222.681ZM230.244 244.113V232.762H232.131V244.113H230.244ZM236.539 246V234.663H238.427V246H236.539ZM244.102 246V234.663H245.989V246H244.102ZM238.427 234.663V232.762H244.102V234.663H238.427ZM252.285 246V244.113H257.96V246H252.285ZM250.398 244.113V234.663H252.285V244.113H250.398ZM252.285 234.663V232.762H256.06V234.663H252.285ZM257.96 244.113V236.55H256.06V234.663H257.96V227.1H259.848V244.113H257.96Z" fill="#6CEB1A"/>
</g>
<defs>
<filter id="filter0_d_255_531" x="0" y="0" width="379" height="372" filterUnits="userSpaceOnUse" color-interpolation-filters="sRGB">
<feFlood flood-opacity="0" result="BackgroundImageFix"/>
<feColorMatrix in="SourceAlpha" type="matrix" values="0 0 0 0 0 0 0 0 0 0 0 0 0 0 0 0 0 0 127 0" result="hardAlpha"/>
<feOffset dx="8" dy="8"/>
<feGaussianBlur stdDeviation="4.5"/>
<feComposite in2="hardAlpha" operator="out"/>
<feColorMatrix type="matrix" values="0 0 0 0 0 0 0 0 0 0 0 0 0 0 0 0 0 0 0.25 0"/>
<feBlend mode="normal" in2="BackgroundImageFix" result="effect1_dropShadow_255_531"/>
<feBlend mode="normal" in="SourceGraphic" in2="effect1_dropShadow_255_531" result="shape"/>
</filter>
</defs>
</svg>
