<svg width="45" height="45" viewBox="0 0 45 45" fill="none" xmlns="http://www.w3.org/2000/svg">
<rect x="3.69336" y="14.7736" width="36.934" height="14.7736" fill="#C7F2FF"/>
<rect x="7.38574" y="29.5471" width="29.5472" height="11.0802" fill="#C7F2FF"/>
<rect x="7.38574" y="3.69336" width="29.5472" height="11.0802" fill="#C7F2FF"/>
<rect x="25.8535" y="40.6273" width="3.6934" height="3.6934" fill="black"/>
<rect x="18.4658" y="3.69336" width="3.6934" height="3.6934" transform="rotate(-180 18.4658 3.69336)" fill="black"/>
<rect x="44.3203" y="25.8538" width="3.6934" height="3.6934" transform="rotate(90 44.3203 25.8538)" fill="black"/>
<rect x="3.69336" y="25.8538" width="3.6934" height="3.6934" transform="rotate(90 3.69336 25.8538)" fill="black"/>
<rect x="33.2402" y="36.934" width="3.6934" height="3.6934" fill="black"/>
<rect x="11.0801" y="7.38672" width="3.6934" height="3.6934" transform="rotate(-180 11.0801 7.38672)" fill="black"/>
<rect x="11.0801" y="36.934" width="3.6934" height="3.6934" fill="black"/>
<rect x="33.2402" y="7.38672" width="3.6934" height="3.6934" transform="rotate(-180 33.2402 7.38672)" fill="black"/>
<rect x="7.38574" y="33.2406" width="3.6934" height="3.6934" transform="rotate(90 7.38574 33.2406)" fill="black"/>
<rect x="36.9336" y="11.0802" width="3.6934" height="3.6934" transform="rotate(-90 36.9336 11.0802)" fill="black"/>
<rect x="40.627" y="33.2406" width="3.6934" height="3.6934" transform="rotate(90 40.627 33.2406)" fill="black"/>
<rect x="3.69336" y="11.0802" width="3.6934" height="3.6934" transform="rotate(-90 3.69336 11.0802)" fill="black"/>
<rect x="22.1602" y="40.6273" width="3.6934" height="3.6934" fill="black"/>
<rect x="18.4658" y="22.1604" width="3.6934" height="3.6934" fill="black"/>
<rect x="22.1602" y="3.69336" width="3.6934" height="3.6934" transform="rotate(-180 22.1602 3.69336)" fill="black"/>
<rect x="44.3203" y="22.1604" width="3.6934" height="3.6934" transform="rotate(90 44.3203 22.1604)" fill="black"/>
<rect x="25.8535" y="22.1604" width="3.6934" height="3.6934" transform="rotate(90 25.8535 22.1604)" fill="black"/>
<rect x="3.69336" y="22.1604" width="3.6934" height="3.6934" transform="rotate(90 3.69336 22.1604)" fill="black"/>
<rect x="29.5469" y="36.934" width="3.6934" height="3.6934" fill="black"/>
<rect x="14.7734" y="7.38672" width="3.6934" height="3.6934" transform="rotate(-180 14.7734 7.38672)" fill="black"/>
<rect x="7.38574" y="36.934" width="3.6934" height="3.6934" fill="black"/>
<rect x="36.9336" y="7.38672" width="3.6934" height="3.6934" transform="rotate(-180 36.9336 7.38672)" fill="black"/>
<rect x="7.38574" y="29.5471" width="3.6934" height="3.6934" transform="rotate(90 7.38574 29.5471)" fill="black"/>
<rect x="36.9336" y="14.7736" width="3.6934" height="3.6934" transform="rotate(-90 36.9336 14.7736)" fill="black"/>
<rect x="40.627" y="29.5471" width="3.6934" height="3.6934" transform="rotate(90 40.627 29.5471)" fill="black"/>
<rect x="3.69336" y="14.7736" width="3.6934" height="3.6934" transform="rotate(-90 3.69336 14.7736)" fill="black"/>
<rect x="18.4658" y="40.6273" width="3.6934" height="3.6934" fill="black"/>
<rect x="14.7734" y="22.1604" width="3.6934" height="3.6934" fill="black"/>
<rect x="25.8535" y="3.69336" width="3.6934" height="3.6934" transform="rotate(-180 25.8535 3.69336)" fill="black"/>
<rect x="44.3203" y="18.4669" width="3.6934" height="3.6934" transform="rotate(90 44.3203 18.4669)" fill="black"/>
<rect x="25.8535" y="18.4669" width="3.6934" height="3.6934" transform="rotate(90 25.8535 18.4669)" fill="black"/>
<rect x="3.69336" y="18.4669" width="3.6934" height="3.6934" transform="rotate(90 3.69336 18.4669)" fill="black"/>
<rect x="14.7734" y="40.6273" width="3.6934" height="3.6934" fill="black"/>
<rect x="11.0801" y="22.1604" width="3.6934" height="3.6934" fill="black"/>
<rect x="29.5469" y="3.69336" width="3.6934" height="3.6934" transform="rotate(-180 29.5469 3.69336)" fill="black"/>
<rect x="44.3203" y="14.7736" width="3.6934" height="3.6934" transform="rotate(90 44.3203 14.7736)" fill="black"/>
<rect x="25.8535" y="14.7736" width="3.6934" height="3.6934" transform="rotate(90 25.8535 14.7736)" fill="black"/>
<rect x="25.8535" y="11.0802" width="3.6934" height="3.6934" transform="rotate(90 25.8535 11.0802)" fill="black"/>
<rect x="3.69336" y="14.7736" width="3.6934" height="3.6934" transform="rotate(90 3.69336 14.7736)" fill="black"/>
</svg>
