<svg width="418" height="391" viewBox="0 0 418 391" fill="none" xmlns="http://www.w3.org/2000/svg">
<g filter="url(#filter0_d_255_664)">
<rect x="1.5" y="1.5" width="399" height="372" fill="white" stroke="#6CEB1A"/>
<rect x="1.5" y="1.5" width="398.792" height="64.1055" fill="#D9D9D9" stroke="#6CEB1A"/>
<path d="M71.1289 174V171.148H82.5547V174H71.1289ZM68.2969 171.148V168.297H71.1289V171.148H68.2969ZM82.5547 171.148V162.574H85.4258V171.148H82.5547ZM76.8516 162.574V159.723H82.5547V162.574H76.8516ZM71.1289 159.723V156.871H76.8516V159.723H71.1289ZM68.2969 156.871V148.297H71.1289V156.871H68.2969ZM82.5547 151.148V148.297H85.4258V151.148H82.5547ZM71.1289 148.297V145.445H82.5547V148.297H71.1289ZM93.8828 174V171.148H102.457V174H93.8828ZM91.0312 171.148V156.871H93.8828V171.148H91.0312ZM102.457 171.148V156.871H105.309V171.148H102.457ZM93.8828 156.871V154H102.457V156.871H93.8828ZM111.969 174V156.871H114.82V174H111.969ZM123.395 174V156.871H126.246V174H123.395ZM134.82 174V156.871H137.672V174H134.82ZM114.82 156.871V154H123.395V156.871H114.82ZM126.246 156.871V154H134.82V156.871H126.246ZM147.203 174V171.148H155.777V174H147.203ZM155.777 171.148V168.297H158.629V171.148H155.777ZM144.352 171.148V156.871H147.203V162.574H155.777V156.871H158.629V165.445H147.203V171.148H144.352ZM147.203 156.871V154H155.777V156.871H147.203ZM169.566 174V171.148H175.289V174H169.566ZM166.715 171.148V156.871H163.863V154H166.715V145.445H169.566V154H175.289V156.871H169.566V171.148H166.715ZM191.949 174V156.871H194.801V174H191.949ZM186.227 156.871V154H191.949V156.871H186.227ZM180.523 174V145.445H183.375V156.871H186.227V159.723H183.375V174H180.523ZM201.461 174V154H204.312V174H201.461ZM201.461 151.148V148.297H204.312V151.148H201.461ZM210.992 174V156.871H213.844V174H210.992ZM222.418 174V156.871H225.27V174H222.418ZM213.844 156.871V154H222.418V156.871H213.844ZM234.781 185.426V182.555H243.355V185.426H234.781ZM231.93 182.555V179.703H234.781V182.555H231.93ZM234.781 174V171.148H240.484V174H234.781ZM231.93 171.148V156.871H234.781V171.148H231.93ZM243.355 182.555V171.148H240.484V168.297H243.355V156.871H246.207V182.555H243.355ZM234.781 156.871V154H243.355V156.871H234.781ZM265.719 174V171.148H268.57V174H265.719ZM277.145 174V171.148H280.016V174H277.145ZM262.867 171.148V165.445H265.719V171.148H262.867ZM268.57 171.148V165.445H271.441V171.148H268.57ZM274.293 171.148V165.445H277.145V171.148H274.293ZM280.016 171.148V165.445H282.867V171.148H280.016ZM260.016 165.445V154H262.867V165.445H260.016ZM271.441 165.445V154H274.293V165.445H271.441ZM282.867 165.445V154H285.719V165.445H282.867ZM295.25 174V171.148H303.824V174H295.25ZM303.824 171.148V168.297H306.676V171.148H303.824ZM292.398 171.148V156.871H295.25V162.574H303.824V156.871H306.676V165.445H295.25V171.148H292.398ZM295.25 156.871V154H303.824V156.871H295.25ZM313.336 174V156.871H316.188V174H313.336ZM324.762 174V156.871H327.613V174H324.762ZM316.188 156.871V154H324.762V156.871H316.188ZM338.551 174V171.148H344.273V174H338.551ZM335.699 171.148V156.871H332.848V154H335.699V145.445H338.551V154H344.273V156.871H338.551V171.148H335.699ZM74.7031 225V222.148H77.5547V225H74.7031ZM86.1289 225V222.148H89V225H86.1289ZM71.8516 222.148V216.445H74.7031V222.148H71.8516ZM77.5547 222.148V216.445H80.4258V222.148H77.5547ZM83.2773 222.148V216.445H86.1289V222.148H83.2773ZM89 222.148V216.445H91.8516V222.148H89ZM69 216.445V205H71.8516V216.445H69ZM80.4258 216.445V205H83.2773V216.445H80.4258ZM91.8516 216.445V205H94.7031V216.445H91.8516ZM101.383 225V205H104.234V207.871H107.086V210.723H104.234V225H101.383ZM107.086 207.871V205H109.938V207.871H107.086ZM118.023 225V222.148H126.598V225H118.023ZM115.172 222.148V207.871H118.023V222.148H115.172ZM126.598 222.148V207.871H129.449V222.148H126.598ZM118.023 207.871V205H126.598V207.871H118.023ZM136.109 225V207.871H138.961V225H136.109ZM147.535 225V207.871H150.387V225H147.535ZM138.961 207.871V205H147.535V207.871H138.961ZM159.898 236.426V233.555H168.473V236.426H159.898ZM157.047 233.555V230.703H159.898V233.555H157.047ZM159.898 225V222.148H165.602V225H159.898ZM157.047 222.148V207.871H159.898V222.148H157.047ZM168.473 233.555V222.148H165.602V219.297H168.473V207.871H171.324V233.555H168.473ZM159.898 207.871V205H168.473V207.871H159.898ZM177.984 225V222.148H180.836V225H177.984ZM177.984 219.297V196.445H180.836V219.297H177.984Z" fill="#0101B1"/>
<path d="M285.346 244.45H280.085V255.061H285.346V244.45Z" fill="#D9D9D9"/>
<path d="M280.057 233.839H274.796V244.45H280.057V233.839Z" fill="#D9D9D9"/>
<path d="M274.791 233.839H269.531V244.45H274.791V233.839Z" fill="#D9D9D9"/>
<path d="M280.057 244.441H274.796V255.052H280.057V244.441Z" fill="#D9D9D9"/>
<path d="M274.791 244.441H269.531V255.052H274.791V244.441Z" fill="#D9D9D9"/>
<path d="M285.346 255.061H280.085V265.673H285.346V255.061Z" fill="#D9D9D9"/>
<path d="M280.057 255.052H274.796V265.663H280.057V255.052Z" fill="#D9D9D9"/>
<path d="M274.791 255.052H269.531V265.663H274.791V255.052Z" fill="#D9D9D9"/>
<path d="M258.849 233.839H253.588V244.45H258.849V233.839Z" fill="#D9D9D9"/>
<path d="M274.791 223.27H269.531V233.881H274.791V223.27Z" fill="#D9D9D9"/>
<path d="M269.498 218H258.886V223.261H269.498V218Z" fill="#D9D9D9"/>
<path d="M290.621 255.061H285.36V265.673H290.621V255.061Z" fill="#D9D9D9"/>
<path d="M285.346 265.559H280.085V276.17H285.346V265.559Z" fill="#D9D9D9"/>
<path d="M280.057 265.55H274.796V276.161H280.057V265.55Z" fill="#D9D9D9"/>
<path d="M274.791 265.55H269.531V276.161H274.791V265.55Z" fill="#D9D9D9"/>
<path d="M290.621 265.564H285.36V276.175H290.621V265.564Z" fill="#D9D9D9"/>
<path d="M295.896 265.673H290.635V276.284H295.896V265.673Z" fill="#D9D9D9"/>
<path d="M285.346 276.189H280.085V286.801H285.346V276.189Z" fill="#D9D9D9"/>
<path d="M280.057 276.18H274.796V286.791H280.057V276.18Z" fill="#D9D9D9"/>
<path d="M274.791 276.18H269.531V286.791H274.791V276.18Z" fill="#D9D9D9"/>
<path d="M290.621 276.189H285.36V286.801H290.621V276.189Z" fill="#D9D9D9"/>
<path d="M295.896 276.303H290.635V286.914H295.896V276.303Z" fill="#D9D9D9"/>
<path d="M301.147 276.279H295.886V286.891H301.147V276.279Z" fill="#D9D9D9"/>
<path d="M285.346 286.815H280.085V297.483H285.346V286.815Z" fill="#D9D9D9"/>
<path d="M280.057 286.805H274.796V297.473H280.057V286.805Z" fill="#D9D9D9"/>
<path d="M274.791 286.805H269.531V297.473H274.791V286.805Z" fill="#D9D9D9"/>
<path d="M269.569 292.449H258.849V297.502H269.569V292.449Z" fill="#D9D9D9"/>
<path d="M290.621 286.815H285.36V297.483H290.621V286.815Z" fill="#D9D9D9"/>
<path d="M295.896 286.928H290.635V297.596H295.896V286.928Z" fill="#D9D9D9"/>
<path d="M301.147 286.905H295.886V297.516H301.147V286.905Z" fill="#D9D9D9"/>
<path d="M306.403 286.886H301.142V297.497H306.403V286.886Z" fill="#D9D9D9"/>
<path d="M248.318 244.45H243.057V255.061H248.318V244.45Z" fill="#D9D9D9"/>
<path d="M253.607 233.839H248.346V244.45H253.607V233.839Z" fill="#D9D9D9"/>
<path d="M258.849 244.464H253.588V255.076H258.849V244.464Z" fill="#D9D9D9"/>
<path d="M253.607 244.464H248.346V255.076H253.607V244.464Z" fill="#D9D9D9"/>
<path d="M248.318 255.061H243.057V265.673H248.318V255.061Z" fill="#D9D9D9"/>
<path d="M258.849 255.071H253.588V265.682H258.849V255.071Z" fill="#D9D9D9"/>
<path d="M253.607 255.071H248.346V265.682H253.607V255.071Z" fill="#D9D9D9"/>
<path d="M258.877 223.27H253.616V233.881H258.877V223.27Z" fill="#D9D9D9"/>
<path d="M243.043 255.061H237.782V265.673H243.043V255.061Z" fill="#D9D9D9"/>
<path d="M248.318 265.659H243.057V276.27H248.318V265.659Z" fill="#D9D9D9"/>
<path d="M258.849 265.673H253.588V276.284H258.849V265.673Z" fill="#D9D9D9"/>
<path d="M253.607 265.673H248.346V276.284H253.607V265.673Z" fill="#D9D9D9"/>
<path d="M243.043 265.663H237.782V276.275H243.043V265.663Z" fill="#D9D9D9"/>
<path d="M237.768 265.673H232.508V276.284H237.768V265.673Z" fill="#D9D9D9"/>
<path d="M248.318 276.26H243.057V286.872H248.318V276.26Z" fill="#D9D9D9"/>
<path d="M258.849 276.27H253.588V286.881H258.849V276.27Z" fill="#D9D9D9"/>
<path d="M253.607 276.27H248.346V286.881H253.607V276.27Z" fill="#D9D9D9"/>
<path d="M243.043 276.265H237.782V286.876H243.043V276.265Z" fill="#D9D9D9"/>
<path d="M237.768 276.275H232.508V286.886H237.768V276.275Z" fill="#D9D9D9"/>
<path d="M232.521 276.279H227.26V286.891H232.521V276.279Z" fill="#D9D9D9"/>
<path d="M248.318 286.895H243.057V297.507H248.318V286.895Z" fill="#D9D9D9"/>
<path d="M258.849 286.91H253.588V297.521H258.849V286.91Z" fill="#D9D9D9"/>
<path d="M253.607 286.91H248.346V297.521H253.607V286.91Z" fill="#D9D9D9"/>
<path d="M243.043 286.9H237.782V297.511H243.043V286.9Z" fill="#D9D9D9"/>
<path d="M237.768 286.91H232.508V297.521H237.768V286.91Z" fill="#D9D9D9"/>
<path d="M232.521 286.914H227.26V297.526H232.521V286.914Z" fill="#D9D9D9"/>
<path d="M227.261 286.886H222V297.497H227.261V286.886Z" fill="#D9D9D9"/>
<path d="M301.142 297.497H227.26V302.89H301.142V297.497Z" fill="#D9D9D9"/>
<path d="M269.569 244.455H258.849V276.265H269.569V244.455Z" fill="black"/>
<path d="M269.569 281.583H258.849V292.435H269.569V281.583Z" fill="black"/>
<path d="M269.569 276.218H258.849V281.644H269.569V276.218Z" fill="#D9D9D9"/>
<path d="M269.531 223.27H258.877V233.881H269.531V223.27Z" fill="#D9D9D9"/>
<path d="M269.531 233.877H258.877V244.488H269.531V233.877Z" fill="#D9D9D9"/>
</g>
<defs>
<filter id="filter0_d_255_664" x="0" y="0" width="418" height="391" filterUnits="userSpaceOnUse" color-interpolation-filters="sRGB">
<feFlood flood-opacity="0" result="BackgroundImageFix"/>
<feColorMatrix in="SourceAlpha" type="matrix" values="0 0 0 0 0 0 0 0 0 0 0 0 0 0 0 0 0 0 127 0" result="hardAlpha"/>
<feOffset dx="8" dy="8"/>
<feGaussianBlur stdDeviation="4.5"/>
<feComposite in2="hardAlpha" operator="out"/>
<feColorMatrix type="matrix" values="0 0 0 0 0 0 0 0 0 0 0 0 0 0 0 0 0 0 0.25 0"/>
<feBlend mode="normal" in2="BackgroundImageFix" result="effect1_dropShadow_255_664"/>
<feBlend mode="normal" in="SourceGraphic" in2="effect1_dropShadow_255_664" result="shape"/>
</filter>
</defs>
</svg>
