<svg width="116" height="105" viewBox="0 0 116 105" fill="none" xmlns="http://www.w3.org/2000/svg">
<path d="M31.3914 105V84.0724H41.9269V105H31.3914ZM73.39 105V84.0724H83.8538V105H73.39ZM41.9269 84.0724V73.6086H52.3907V84.0724H41.9269ZM62.8545 84.0724V73.6086H73.39V84.0724H62.8545ZM31.3914 73.6086V63.0731H41.9269V73.6086H31.3914ZM52.3907 73.6086V63.0731H62.8545V73.6086H52.3907ZM73.39 73.6086V63.0731H83.8538V73.6086H73.39ZM20.9276 63.0731V52.6093H31.3914V63.0731H20.9276ZM83.8538 63.0731V52.6093H94.3176V63.0731H83.8538ZM10.4638 52.6093V31.61H20.9276V52.6093H10.4638ZM36.695 42.1455V31.61H47.1588V42.1455H36.695ZM68.0864 42.1455V31.61H78.6219V42.1455H68.0864ZM94.3176 52.6093V31.61H104.781V52.6093H94.3176ZM20.9276 31.61V21.1462H31.3914V31.61H20.9276ZM83.8538 31.61V21.1462H94.3176V31.61H83.8538ZM0 31.61V10.6824H10.4638V31.61H0ZM31.3914 21.1462V10.6824H83.8538V21.1462H31.3914ZM104.781 31.61V10.6824H115.317V31.61H104.781ZM10.4638 10.6824V0.218619H20.9276V10.6824H10.4638ZM94.3176 10.6824V0.218619H104.781V10.6824H94.3176Z" fill="#0101B1"/>
</svg>
