<svg width="75" height="117" viewBox="0 0 75 117" fill="none" xmlns="http://www.w3.org/2000/svg">
<rect x="11" y="18" width="54" height="59" fill="#0101B1"/>
<path d="M12.8516 111V98.1484H8.57422V96.7227H18.5645V98.1484H14.2773V111H12.8516ZM28.1445 111V109.574H29.5703V111H28.1445ZM26.7188 109.574V108.148H28.1445V109.574H26.7188ZM25.2832 108.148V106.723H26.7188V108.148H25.2832ZM27.6074 103.861V98.1484H29.0332V103.861H27.6074ZM20.4688 111V96.7227H27.6074V98.1484H21.8945V103.861H27.6074V105.287H25.2832V106.723H23.8574V105.287H21.8945V111H20.4688ZM32.1875 111V98.1484H33.6133V103.861H39.3262V98.1484H40.752V111H39.3262V105.287H33.6133V111H32.1875ZM33.6133 98.1484V96.7227H39.3262V98.1484H33.6133ZM45.1465 111V109.574H50.8594V111H45.1465ZM43.7305 109.574V108.148H45.1465V109.574H43.7305ZM50.8594 109.574V105.287H52.2949V109.574H50.8594ZM48.0078 105.287V103.861H50.8594V105.287H48.0078ZM45.1465 103.861V102.436H48.0078V103.861H45.1465ZM43.7305 102.436V98.1484H45.1465V102.436H43.7305ZM50.8594 99.5742V98.1484H52.2949V99.5742H50.8594ZM45.1465 98.1484V96.7227H50.8594V98.1484H45.1465ZM55.0977 111V96.7227H56.5234V102.436H62.2363V96.7227H63.6621V111H62.2363V103.861H56.5234V111H55.0977Z" fill="white"/>
<rect x="9" y="21" width="5" height="59" fill="#D9D9D9"/>
<rect x="62" y="21" width="5" height="59" fill="#D9D9D9"/>
<rect x="75" y="16" width="5" height="75" transform="rotate(90 75 16)" fill="#D9D9D9"/>
<rect x="53" width="5" height="30" transform="rotate(90 53 0)" fill="#D9D9D9"/>
<rect x="62" y="75" width="5" height="48" transform="rotate(90 62 75)" fill="#D9D9D9"/>
<rect x="32" y="60" width="5" height="26" transform="rotate(-180 32 60)" fill="#D9D9D9"/>
<rect x="23" y="16" width="5" height="11" transform="rotate(-180 23 16)" fill="#D9D9D9"/>
<rect x="58" y="16" width="5" height="11" transform="rotate(-180 58 16)" fill="#D9D9D9"/>
<rect x="49" y="60" width="5" height="26" transform="rotate(-180 49 60)" fill="#D9D9D9"/>
<rect x="23" y="5" width="30" height="11" fill="#0101B1"/>
</svg>
