<svg width="263" height="24" viewBox="0 0 263 24" fill="none" xmlns="http://www.w3.org/2000/svg">
<path d="M7.75818 24V2.55561H0.620911V0.176521H17.2908V2.55561H10.1373V24H7.75818ZM22.8475 24V21.6209H32.3801V24H22.8475ZM20.4684 21.6209V0.176521H22.8475V21.6209H20.4684ZM32.3801 21.6209V0.176521H34.7592V21.6209H32.3801ZM42.092 24V21.6209H51.6247V24H42.092ZM39.7292 21.6209V19.2418H42.092V21.6209H39.7292ZM51.6247 21.6209V14.4673H54.02V21.6209H51.6247ZM46.8665 14.4673V12.0883H51.6247V14.4673H46.8665ZM42.092 12.0883V9.70917H46.8665V12.0883H42.092ZM39.7292 9.70917V2.55561H42.092V9.70917H39.7292ZM51.6247 4.9347V2.55561H54.02V4.9347H51.6247ZM42.092 2.55561V0.176521H51.6247V2.55561H42.092ZM74.1934 19.2418V16.8627H76.5725V19.2418H74.1934ZM71.798 16.8627V12.0883H74.1934V16.8627H71.798ZM76.5725 16.8627V12.0883H78.9516V16.8627H76.5725ZM69.4189 12.0883V7.31379H71.798V12.0883H69.4189ZM78.9516 12.0883V7.31379H81.347V12.0883H78.9516ZM64.6608 24V0.176521H67.0399V2.55561H69.4189V7.31379H67.0399V24H64.6608ZM83.7261 24V7.31379H81.347V2.55561H83.7261V0.176521H86.1052V24H83.7261ZM94.0572 24V21.6209H103.59V24H94.0572ZM91.6781 21.6209V2.55561H94.0572V21.6209H91.6781ZM103.59 21.6209V2.55561H105.969V21.6209H103.59ZM94.0572 2.55561V0.176521H103.59V2.55561H94.0572ZM118.076 24V19.2418H120.455V24H118.076ZM115.697 19.2418V14.4673H118.076V19.2418H115.697ZM120.455 19.2418V14.4673H122.834V19.2418H120.455ZM113.302 14.4673V9.70917H115.697V14.4673H113.302ZM122.834 14.4673V9.70917H125.23V14.4673H122.834ZM110.939 9.70917V0.176521H113.302V9.70917H110.939ZM125.23 9.70917V0.176521H127.609V9.70917H125.23ZM132.286 24V0.176521H134.665V24H132.286ZM149.77 19.2418V16.8627H152.149V19.2418H149.77ZM147.375 16.8627V12.0883H149.77V16.8627H147.375ZM152.149 16.8627V12.0883H154.528V16.8627H152.149ZM144.996 12.0883V7.31379H147.375V12.0883H144.996ZM154.528 12.0883V7.31379H156.924V12.0883H154.528ZM140.238 24V0.176521H142.617V2.55561H144.996V7.31379H142.617V24H140.238ZM159.303 24V7.31379H156.924V2.55561H159.303V0.176521H161.682V24H159.303ZM167.255 24V0.176521H169.634V24H167.255ZM175.207 24V0.176521H187.119V2.55561H177.586V9.70917H184.74V12.0883H177.586V21.6209H187.119V24H175.207ZM198.639 16.8627V12.0883H201.035V16.8627H198.639ZM196.26 12.0883V7.31379H198.639V12.0883H196.26ZM191.502 24V0.176521H193.881V2.55561H196.26V7.31379H193.881V24H191.502ZM203.414 24V21.6209H201.035V16.8627H203.414V0.176521H205.793V24H203.414ZM216.108 24V2.55561H208.97V0.176521H225.64V2.55561H218.487V24H216.108ZM231.197 24V21.6209H240.73V24H231.197ZM228.818 21.6209V2.55561H231.197V21.6209H228.818ZM240.73 21.6209V2.55561H243.109V21.6209H240.73ZM231.197 2.55561V0.176521H240.73V2.55561H231.197ZM250.442 24V21.6209H259.974V24H250.442ZM248.079 21.6209V19.2418H250.442V21.6209H248.079ZM259.974 21.6209V14.4673H262.37V21.6209H259.974ZM255.216 14.4673V12.0883H259.974V14.4673H255.216ZM250.442 12.0883V9.70917H255.216V12.0883H250.442ZM248.079 9.70917V2.55561H250.442V9.70917H248.079ZM259.974 4.9347V2.55561H262.37V4.9347H259.974ZM250.442 2.55561V0.176521H259.974V2.55561H250.442Z" fill="black"/>
</svg>
